<?xml version="1.0" encoding="UTF-8"?>
<svg id="Capa_2" data-name="Capa 2" xmlns="http://www.w3.org/2000/svg" viewBox="0 0 31.05 38.62">
  <defs>
    <style>
      .cls-1 {
        fill: #fff;
      }
    </style>
  </defs>
  <g id="Capa_1-2" data-name="Capa 1">
    <g>
      <path class="cls-1" d="M3.29,0l17.03.02.41.25,10.11,10.12.21.78v23.7c-.14,2.1-1.4,3.51-3.51,3.76H3.51c-2.11-.24-3.37-1.65-3.51-3.76V3.65C.15,1.69,1.33.32,3.29,0ZM19.16,1.79H3.51s-.6.19-.68.23c-.47.23-.93.83-.94,1.38.06,10.73-.1,21.49.08,32.21.35.77.94,1.12,1.78,1.2h23.54c.62.09,1.85-.76,1.85-1.37V11.87h-7.14c-1.16,0-2.85-1.59-2.85-2.77V1.79ZM27.83,10.05l-6.85-6.94v5.74c0,.48.81,1.2,1.28,1.2h5.57Z"/>
      <path class="cls-1" d="M5.68,26.09l11.54-.02c1.13.23,1,1.75-.17,1.82H5.99c-1.05-.12-1.29-1.36-.31-1.8Z"/>
      <path class="cls-1" d="M5.76,30.88l17.65-.02c.96.12,1.18,1.28.35,1.76-5.93.15-11.91.02-17.86.06-1.06-.13-1.15-1.51-.14-1.8Z"/>
      <g>
        <path class="cls-1" d="M9.98,14.53c4.02-.48,8.14.6,8.2,5.39.02,1.52-1.67,1.68-1.89.39-.12-.71.06-1.12-.25-1.89-.91-2.3-3.47-2.28-5.59-2.09-1.37.12-2.72,1.27-2.97,2.64-.13.73.22,1.85-.72,2.17s-1.24-.73-1.22-1.46c.07-2.43,1.96-4.84,4.44-5.14Z"/>
        <path class="cls-1" d="M15.56,10.38c0,2.05-1.66,3.7-3.7,3.7s-3.7-1.66-3.7-3.7,1.66-3.7,3.7-3.7,3.7,1.66,3.7,3.7ZM13.73,10.38c0-1.04-.84-1.88-1.88-1.88s-1.88.84-1.88,1.88.84,1.88,1.88,1.88,1.88-.84,1.88-1.88Z"/>
      </g>
    </g>
  </g>
</svg>