<?xml version="1.0" encoding="UTF-8"?>
<svg id="Capa_2" data-name="Capa 2" xmlns="http://www.w3.org/2000/svg" viewBox="0 0 325.07 58.36">
  <defs>
    <style>
      .cls-1 {
        fill: #b4cc3d;
      }
    </style>
  </defs>
  <g id="Capa_1-2" data-name="Capa 1">
    <g>
      <g>
        <path class="cls-1" d="M140.27,58.05c-5.13,0-9.42-.75-12.86-2.24-3.45-1.5-6.05-3.45-7.82-5.85-1.76-2.4-2.7-4.97-2.81-7.69,0-.43.16-.81.48-1.16.32-.35.72-.52,1.2-.52h8.58c.69,0,1.23.15,1.6.44.37.29.72.65,1.04,1.08.37.91.97,1.79,1.8,2.64.83.86,1.96,1.56,3.41,2.12,1.44.56,3.23.84,5.37.84,3.47,0,6.08-.56,7.81-1.68,1.74-1.12,2.6-2.65,2.6-4.57,0-1.39-.47-2.51-1.4-3.37-.94-.85-2.4-1.63-4.41-2.32-2-.69-4.66-1.44-7.98-2.24-4.01-.85-7.41-1.96-10.22-3.33-2.81-1.36-4.92-3.13-6.33-5.29-1.42-2.16-2.12-4.85-2.12-8.06s.88-6.05,2.65-8.54c1.76-2.49,4.25-4.43,7.45-5.85,3.21-1.41,7.03-2.12,11.46-2.12,3.58,0,6.75.48,9.5,1.44,2.75.96,5.05,2.22,6.89,3.77,1.84,1.55,3.25,3.21,4.21,4.97.96,1.76,1.47,3.47,1.52,5.13,0,.43-.16.81-.48,1.16-.32.35-.72.52-1.2.52h-8.98c-.54,0-1.02-.11-1.44-.32-.43-.21-.78-.59-1.04-1.12-.32-1.39-1.27-2.6-2.85-3.65-1.58-1.04-3.62-1.56-6.13-1.56s-4.69.48-6.21,1.44c-1.52.96-2.28,2.43-2.28,4.41,0,1.28.39,2.36,1.16,3.25.77.88,2.08,1.66,3.93,2.32,1.84.67,4.29,1.4,7.33,2.2,4.7.96,8.52,2.11,11.46,3.45,2.94,1.34,5.1,3.06,6.49,5.17,1.39,2.11,2.08,4.77,2.08,7.98,0,3.58-1,6.65-3.01,9.22-2,2.56-4.76,4.53-8.26,5.89-3.5,1.36-7.57,2.04-12.22,2.04Z"/>
        <path class="cls-1" d="M173.13,57.24c-.59,0-1.07-.19-1.44-.56-.37-.37-.56-.85-.56-1.44V3.14c0-.59.19-1.07.56-1.44s.85-.56,1.44-.56h21.88c4.33,0,8.08.67,11.26,2,3.18,1.34,5.66,3.35,7.45,6.05,1.79,2.7,2.68,6.05,2.68,10.06s-.9,7.41-2.68,10.06c-1.79,2.64-4.28,4.61-7.45,5.89-3.18,1.28-6.93,1.92-11.26,1.92h-10.74v18.11c0,.59-.19,1.07-.56,1.44s-.85.56-1.44.56h-9.14ZM184.03,27.19h10.58c2.72,0,4.85-.67,6.37-2,1.52-1.33,2.28-3.34,2.28-6.01,0-2.35-.68-4.27-2.04-5.77-1.36-1.5-3.57-2.24-6.61-2.24h-10.58v16.03Z"/>
        <path class="cls-1" d="M247.38,58.05c-4.7,0-8.82-.79-12.34-2.36s-6.25-4.01-8.18-7.29c-1.92-3.29-2.89-7.47-2.89-12.54V3.14c0-.59.19-1.07.56-1.44.37-.37.85-.56,1.44-.56h8.74c.59,0,1.07.19,1.44.56.37.37.56.86.56,1.44v32.62c0,3.95.93,6.89,2.81,8.82,1.87,1.92,4.49,2.89,7.85,2.89s5.9-.96,7.77-2.89c1.87-1.92,2.81-4.86,2.81-8.82V3.14c0-.59.2-1.07.6-1.44.4-.37.87-.56,1.4-.56h8.82c.53,0,.99.19,1.36.56.37.37.56.86.56,1.44v32.7c0,5.08-.96,9.26-2.89,12.54-1.92,3.29-4.62,5.72-8.1,7.29-3.47,1.58-7.59,2.36-12.34,2.36Z"/>
        <path class="cls-1" d="M280.27,57.24c-.59,0-1.07-.19-1.44-.56-.37-.37-.56-.85-.56-1.44V3.14c0-.59.19-1.07.56-1.44s.85-.56,1.44-.56h20.12c5.34,0,9.81.84,13.39,2.52,3.58,1.68,6.32,4.14,8.21,7.37,1.9,3.23,2.9,7.23,3.01,11.98.05,2.35.08,4.41.08,6.17s-.03,3.79-.08,6.09c-.16,4.97-1.15,9.09-2.97,12.34-1.82,3.26-4.49,5.68-8.02,7.25-3.53,1.58-7.93,2.36-13.22,2.36h-20.52ZM291.01,46.9h9.38c2.67,0,4.86-.4,6.57-1.2,1.71-.8,2.98-2.07,3.81-3.81.83-1.74,1.27-3.99,1.32-6.77.05-1.55.09-2.94.12-4.17.03-1.23.03-2.46,0-3.69-.03-1.23-.07-2.59-.12-4.09-.11-4.01-1.14-6.96-3.09-8.86-1.95-1.9-4.96-2.85-9.02-2.85h-8.98v35.43Z"/>
      </g>
      <path class="cls-1" d="M63.99,23.7c2.29-6.77,8.69-11.65,16.23-11.65,2.34,0,4.56.47,6.59,1.31,6.75-4.33,10.55-2.24,10.55-2.24-2.17,2.63-3.42,5.69-3.94,7.14,2.46,2.97,3.94,6.78,3.94,10.93,0,9.47-7.67,17.14-17.14,17.14-5.8,0-10.86-3.14-13.78-6.59-.89-1.05-2.58-.78-3.07.51-.96,2.5-2.37,4.51-3.99,6.86-.59.85-.49,2.01.24,2.74,5.69,5.67,13.7,9.02,22.49,8.46,14.81-.94,26.69-13.15,27.25-27.98C110,13.7,96.71.02,80.22.02c0,0-20.29-1.59-29.17,23.15-7.66,21.33-17.22,22.48-20.01,22.83h-2.19c-2.31,0-4.51-.63-6.52-1.47-6.68,4.28-10.43,2.22-10.43,2.22,2.15-2.61,3.38-5.62,3.9-7.06-2.69-3.25-4.19-7.51-3.85-12.13.62-8.19,7.2-14.86,15.38-15.57,6.48-.57,12.29,2.52,15.59,7.43.85,1.26,2.79.92,3.22-.54.81-2.76,1.95-5.39,3.37-7.83.5-.86.36-1.96-.35-2.66C43.54,2.81,35.62-.48,26.94.08,12.3,1.03.58,13.1.02,27.75c-.62,16.45,12.52,29.98,28.83,29.98,8.56,0,16.24-3.73,21.52-9.64,0,0,7.01-5.89,13.61-24.39Z"/>
    </g>
  </g>
</svg>