<?xml version="1.0" encoding="UTF-8"?>
<svg id="Capa_2" data-name="Capa 2" xmlns="http://www.w3.org/2000/svg" viewBox="0 0 38.54 39.86">
  <defs>
    <style>
      .cls-1 {
        fill: #fff;
      }
    </style>
  </defs>
  <g id="Capa_1-2" data-name="Capa 1">
    <g>
      <path class="cls-1" d="M33.66,20.49c4.35-.49,6.43,4.24,3.53,7.54-3.16,3.6-7.17,6.83-10.4,10.4-.99.84-3.52,1.24-4.85,1.33-4.04.29-2.4-4.48-1.92-6.77,3.59-3.98,7.58-7.64,11.32-11.49.64-.53,1.49-.93,2.32-1.02ZM35.57,23.34c-.09-.08-.42-.29-.54-.34-1.63-.68-2.42.73-3.44,1.7l2.71,2.79c.82-.91,2.07-1.61,1.86-3.03-.05-.35-.34-.88-.59-1.12ZM21.65,37.43c1.14-.14,2.28-.36,3.39-.67l7.56-7.57-2.63-2.64-.21-.04-7.53,7.52-.58,3.39Z"/>
      <g>
        <path class="cls-1" d="M26.33,3.42c2.09-.02,4.04-.17,5.84,1.05,4.01,2.7,2.2,7.95,2.6,12.03-.15,1.27-2.08,1.31-2.34.08-.31-2.39.5-6.24-.28-8.42-.93-2.6-3.54-2.38-5.83-2.32.15,1.89-1.18,3.37-3.05,3.51-3.8-.23-7.94.29-11.71,0-1.93-.15-3.14-1.6-3.13-3.51-1.32.06-2.73-.21-3.96.34-1.18.53-1.96,1.76-2.06,3.04v24.83c.22,2.08,1.69,3.25,3.72,3.38,3.02.19,6.24-.16,9.27,0,1.33.33,1.24,2.2-.16,2.34-3.23-.23-6.84.29-10.03,0-2.81-.26-5.12-2.95-5.23-5.72V9.14c.17-2.37,1.66-4.47,3.89-5.31,1.48-.56,3-.39,4.55-.42.01-1.67.98-3.06,2.64-3.41h12.67c1.6.3,2.73,1.8,2.57,3.42ZM11.68,2.35c-.51.06-.76.36-.82.86-.07.6-.08,2.43,0,3,.05.33.26.58.58.68l11.75.04c.3-.01.54-.24.69-.48-.08-1.06.17-2.47.01-3.49-.07-.47-.54-.6-.95-.64l-11.26.03Z"/>
        <path class="cls-1" d="M9.17,15.3l13.44-.02c1.37.23,1.38,2.09,0,2.34h-13.29c-1.24-.15-1.32-1.99-.15-2.32Z"/>
        <path class="cls-1" d="M16.19,22.42c.71.71.31,1.92-.69,2.05-1.86.25-4.25-.17-6.17,0-1.4-.37-1.29-2.24.17-2.41,1.28-.15,4.46-.14,5.76,0,.29.03.73.15.93.36Z"/>
      </g>
    </g>
  </g>
</svg>