<?xml version="1.0" encoding="UTF-8"?>
<svg id="Capa_2" data-name="Capa 2" xmlns="http://www.w3.org/2000/svg" viewBox="0 0 36.83 36.83">
  <defs>
    <style>
      .cls-1 {
        fill: #fff;
      }
    </style>
  </defs>
  <g id="Capa_1-2" data-name="Capa 1">
    <g>
      <path class="cls-1" d="M18.42,0C8.26,0,0,8.26,0,18.42s8.26,18.42,18.42,18.42,18.42-8.26,18.42-18.42S28.57,0,18.42,0ZM18.42,34.38c-8.8,0-15.96-7.16-15.96-15.96S9.62,2.46,18.42,2.46s15.96,7.16,15.96,15.96-7.16,15.96-15.96,15.96Z"/>
      <path class="cls-1" d="M19.43,10.61c.05.07,1.35.45,1.73.67,1.22.71,2.35,2.39,2.22,3.71-.11,1.09-1.72,1.45-2.24.48-.4-.74.02-1.32-.88-2.13-2.81-2.52-6.57,1.88-3.22,3.64.93.49,1.96.28,3.01.6,3.96,1.19,4.5,6.18.87,8-.37.18-1.44.44-1.5.5-.25.26.59,2.31-1.36,2.15-1.44-.12-.67-1.75-.94-2.14-.05-.08-.86-.28-1.06-.38-.77-.39-1.64-1.14-2.05-1.83-.59-.98-1.17-3.38.79-3.12,1.45.19.47,2.44,2.55,3.16,2.42.84,4.63-1.53,3.26-3.42-.99-1.35-2.45-.92-3.88-1.34-3.84-1.11-4.46-5.96-1.07-7.91.28-.16,1.38-.57,1.43-.62.32-.42-.44-2.1,1.27-2.04,1.56.06.83,1.67,1.08,2.02Z"/>
    </g>
  </g>
</svg>