<?xml version="1.0" encoding="UTF-8"?>
<svg id="Capa_2" data-name="Capa 2" xmlns="http://www.w3.org/2000/svg" viewBox="0 0 36.56 36.56">
  <defs>
    <style>
      .cls-1 {
        fill: #fff;
      }
    </style>
  </defs>
  <g id="Capa_1-2" data-name="Capa 1">
    <g>
      <path class="cls-1" d="M18.28,0C8.2,0,0,8.2,0,18.28c0,2.79.65,5.58,1.89,8.09L.03,35.09c-.09.41.04.85.35,1.14.23.22.53.34.84.34.1,0,.21-.01.31-.04l8.08-2.16c2.67,1.44,5.65,2.2,8.66,2.2,10.08,0,18.28-8.2,18.28-18.28S28.36,0,18.28,0ZM18.28,34.13c-2.76,0-5.49-.73-7.89-2.12-.19-.11-.4-.16-.61-.16-.1,0-.21.01-.31.04l-6.64,1.77,1.54-7.19c.06-.28.02-.57-.11-.82-1.21-2.3-1.82-4.77-1.82-7.36,0-8.74,7.11-15.84,15.84-15.84s15.84,7.11,15.84,15.84-7.11,15.84-15.84,15.84Z"/>
      <path class="cls-1" d="M27.43,13.84l-5.56-.81-2.49-5.04c-.41-.83-1.78-.83-2.19,0l-2.49,5.04-5.56.81c-.46.07-.84.39-.98.83-.14.44-.02.93.31,1.25l4.03,3.92-.95,5.54c-.08.46.11.92.48,1.19s.87.31,1.28.09l4.98-2.62,4.98,2.62c.18.09.37.14.57.14.25,0,.5-.08.72-.23.37-.27.56-.73.48-1.19l-.95-5.54,4.03-3.92c.33-.32.45-.81.31-1.25-.14-.44-.52-.76-.98-.83ZM21.91,18.55c-.29.28-.42.68-.35,1.08l.64,3.74-3.36-1.77c-.18-.09-.37-.14-.57-.14s-.39.05-.57.14l-3.36,1.77.64-3.74c.07-.4-.06-.8-.35-1.08l-2.72-2.65,3.75-.55c.4-.06.74-.31.92-.67l1.68-3.4,1.68,3.4c.18.36.52.61.92.67l3.75.55-2.72,2.65Z"/>
    </g>
  </g>
</svg>