<?xml version="1.0" encoding="UTF-8"?>
<svg id="Capa_2" data-name="Capa 2" xmlns="http://www.w3.org/2000/svg" viewBox="0 0 67.52 54.14">
  <defs>
    <style>
      .cls-1 {
        fill: #27b7cc;
      }
    </style>
  </defs>
  <g id="Capa_1-2" data-name="Capa 1">
    <path class="cls-1" d="M50.76,54.14h-12.36c-.47,0-.86-.38-.86-.86v-8.56c0-.47.38-.86.86-.86h23.09c2.38,0,4.32-1.94,4.32-4.32V6.03c0-2.38-1.94-4.32-4.32-4.32H6.03C3.65,1.71,1.71,3.65,1.71,6.03v33.53c0,2.38,1.94,4.32,4.32,4.32h23.09c.47,0,.86.38.86.86v8.56c0,.47-.38.86-.86.86h-12.36c-.47,0-.86-.38-.86-.86s.38-.86.86-.86h11.51v-6.85H6.03c-3.32,0-6.03-2.7-6.03-6.03V6.03C0,2.7,2.7,0,6.03,0h55.46c3.32,0,6.03,2.7,6.03,6.03v33.53c0,3.32-2.7,6.03-6.03,6.03h-22.24v6.85h11.51c.47,0,.86.38.86.86s-.38.86-.86.86Z"/>
  </g>
</svg>