<?xml version="1.0" encoding="UTF-8"?>
<svg id="Capa_2" data-name="Capa 2" xmlns="http://www.w3.org/2000/svg" viewBox="0 0 36.56 36.56">
  <defs>
    <style>
      .cls-1 {
        fill: #fff;
      }
    </style>
  </defs>
  <g id="Capa_1-2" data-name="Capa 1">
    <path class="cls-1" d="M34.74,29.68c1.2-2.08,1.83-4.42,1.83-6.8,0-6.11-3.99-11.39-9.78-13.1C25.08,3.99,19.8,0,13.69,0,6.14,0,0,6.14,0,13.69c0,2.38.63,4.72,1.83,6.8L.06,25.77c-.15.44-.03.92.29,1.25.23.23.54.36.86.36.13,0,.26-.02.39-.06l5.28-1.76c.9.52,1.88.91,2.88,1.21,1.7,5.8,6.99,9.8,13.11,9.8,2.38,0,4.72-.63,6.8-1.83l5.28,1.76c.13.04.26.06.39.06.32,0,.63-.12.86-.36.33-.33.44-.81.29-1.25l-1.76-5.28ZM7.03,23c-.13,0-.26.02-.39.06l-3.5,1.17,1.17-3.5c.12-.35.07-.73-.13-1.04-1.15-1.81-1.75-3.89-1.75-6C2.44,7.48,7.48,2.44,13.69,2.44c5.22,0,9.72,3.54,10.93,8.62.21.83.32,1.71.32,2.63,0,6.2-5.05,11.25-11.25,11.25-.91,0-1.8-.11-2.64-.32-1.21-.3-2.34-.78-3.36-1.43-.2-.13-.43-.19-.66-.19ZM32.25,29.92l1.17,3.5-3.5-1.17c-.35-.12-.73-.07-1.04.13-1.81,1.15-3.89,1.75-6,1.75-4.58,0-8.59-2.72-10.33-6.8.38.03.76.05,1.15.05,7.55,0,13.69-6.14,13.69-13.69,0-.39-.02-.77-.05-1.15,4.08,1.74,6.8,5.76,6.8,10.33,0,2.11-.61,4.19-1.75,6-.2.31-.24.69-.13,1.04Z"/>
  </g>
</svg>