<?xml version="1.0" encoding="UTF-8"?>
<svg id="Capa_2" data-name="Capa 2" xmlns="http://www.w3.org/2000/svg" viewBox="0 0 34.96 34.54">
  <defs>
    <style>
      .cls-1 {
        fill: #fff;
      }
    </style>
  </defs>
  <g id="Capa_1-2" data-name="Capa 1">
    <path class="cls-1" d="M18.07,21.04c.29.05.67.44.63.77v12.04c-.03.35-.34.64-.7.63-3.08-.15-6.34.19-9.41,0C4.19,34.2.42,30.57.12,26.14c-.38-5.7.29-11.81,0-17.55C.32,4.1,4.15.39,8.6.11c5.77-.36,11.9.28,17.7,0,4.51.28,8.27,3.85,8.55,8.41.35,5.72-.27,11.79,0,17.55-.25,3.83-2.98,7.11-6.67,8.09-1.35.36-4.03.48-5.41.32-.24-.03-.41-.14-.54-.34-.21-.34-.08-.46-.08-.79-.05-3.93.01-7.87.01-11.81.06-.25.37-.45.61-.49.48-.07,3.2.1,3.33-.01l.52-3.22h-4c-.16,0-.44-.38-.47-.55-.11-.71,0-2.01,0-2.79,0-.71-.1-1.19.2-1.92.22-.52.93-1.27,1.52-1.27h3.19v-3.01c-2.33-.47-6.07-.31-7.67,1.69-1.27,1.58-.47,5.15-.7,7.16-.03.23-.23.7-.48.7h-3.71v3.23h3.56ZM17.23,33v-10.5h-3.71c-.12,0-.49-.38-.47-.55.1-1.58-.15-3.36,0-4.92.03-.33.27-.69.63-.69h3.56v-4.88c0-.15.18-.82.24-1.01,1.19-3.75,6.78-4.34,10.04-3.62.46.1.97.18,1.03.73-.1,1.44.13,3.06,0,4.48-.04.39-.23.63-.63.69-1.09.17-2.55-.13-3.67,0-.56.07-.69.66-.7,1.14,0,.21.08.39.08.58,0,.62,0,1.25,0,1.87h3.93c.31,0,.7.44.68.77-.37,1.47-.35,3.31-.76,4.74-.06.2-.3.66-.52.66h-3.34v10.5c1.13-.03,2.27.08,3.39-.09,3.4-.53,6.15-3.46,6.38-6.91V8.59c-.25-3.78-3.41-6.76-7.16-7.01-5.73.27-11.79-.35-17.48,0-3.79.23-6.83,3.27-7.16,7.01.27,5.68-.35,11.68,0,17.33.23,3.71,3.36,6.83,7.09,7.08h8.56Z"/>
  </g>
</svg>