<?xml version="1.0" encoding="UTF-8"?>
<svg id="Capa_2" data-name="Capa 2" xmlns="http://www.w3.org/2000/svg" viewBox="0 0 47.68 70.68">
  <defs>
    <style>
      .cls-1 {
        fill: #b5cd3d;
      }
    </style>
  </defs>
  <g id="Capa_1-2" data-name="Capa 1">
    <g>
      <path class="cls-1" d="M24.91,70.68c-2.07,0-5.47-.2-8.66-1.28-.47-.16-.72-.67-.56-1.14s.67-.72,1.14-.56c4.59,1.56,9.84,1.13,9.89,1.13.03,0,.05,0,.08,0,10.52,0,19.07-8.56,19.07-19.07v-18.13c0-1.6-1.3-2.9-2.9-2.9s-2.9,1.3-2.9,2.9v.3c0,.5-.4.9-.9.9h-.58c-.5,0-.9-.4-.9-.9v-1.46c0-1.8-1.46-3.26-3.26-3.26s-3.26,1.46-3.26,3.26v.54c0,.5-.4.9-.9.9h-1.05c-.5,0-.9-.4-.9-.9v-1.89c0-1.58-1.28-2.86-2.86-2.86s-2.86,1.28-2.86,2.86v.22c0,.5-.4.9-.9.9h-.94c-.5,0-.9-.4-.9-.9V9.76c0-1.72-1.4-3.13-3.13-3.13s-3.13,1.4-3.13,3.13v26.14c0,.5-.4.9-.9.9h-3.03c-1.15,0-2.08.93-2.08,2.08v15.43c0,4.56,1.9,8.94,4.62,10.64.42.26.55.82.29,1.24-.26.42-.82.55-1.24.29-3.78-2.36-5.47-7.81-5.47-12.17v-15.43c0-2.14,1.74-3.89,3.89-3.89h2.13V9.76c0-2.72,2.21-4.93,4.93-4.93s4.93,2.21,4.93,4.93v16.62c.85-1.19,2.24-1.97,3.8-1.97,2.2,0,4.05,1.53,4.54,3.59.86-1.56,2.53-2.63,4.44-2.63,2.21,0,4.09,1.42,4.78,3.4.86-1.14,2.23-1.88,3.76-1.88,2.59,0,4.7,2.11,4.7,4.7v18.13c0,11.5-9.35,20.86-20.84,20.88-.18.01-.89.06-1.93.06Z"/>
      <path class="cls-1" d="M8.78,4.84c-.11,0-.22-.02-.32-.06L.58,1.74C.11,1.56-.12,1.04.06.58.24.11.76-.12,1.23.06l7.87,3.04c.46.18.7.7.52,1.17-.14.36-.48.58-.84.58Z"/>
      <path class="cls-1" d="M.9,16.44c-.36,0-.7-.22-.84-.58-.18-.46.05-.99.52-1.17l7.87-3.04c.46-.18.99.05,1.17.52.18.46-.05.99-.52,1.17l-7.87,3.04c-.11.04-.22.06-.32.06Z"/>
      <path class="cls-1" d="M24.9,4.84c-.36,0-.7-.22-.84-.58-.18-.46.05-.99.52-1.17L32.45.06c.46-.18.99.05,1.17.52.18.46-.05.99-.52,1.17l-7.87,3.04c-.11.04-.22.06-.32.06Z"/>
      <path class="cls-1" d="M32.78,16.44c-.11,0-.22-.02-.32-.06l-7.87-3.04c-.46-.18-.7-.7-.52-1.17.18-.46.7-.7,1.17-.52l7.87,3.04c.46.18.7.7.52,1.17-.14.36-.48.58-.84.58Z"/>
    </g>
  </g>
</svg>