<?xml version="1.0" encoding="UTF-8"?>
<svg id="Capa_2" data-name="Capa 2" xmlns="http://www.w3.org/2000/svg" viewBox="0 0 230.48 72.88">
  <defs>
    <style>
      .cls-1 {
        fill: #fff;
      }
    </style>
  </defs>
  <g id="Capa_1-2" data-name="Capa 1">
    <g>
      <g>
        <g>
          <path class="cls-1" d="M99.54,41.13c-3.63,0-6.67-.53-9.11-1.59-2.44-1.06-4.29-2.44-5.54-4.15-1.25-1.7-1.91-3.52-1.99-5.45,0-.3.11-.58.34-.82.23-.25.51-.37.85-.37h6.08c.49,0,.87.11,1.14.31.26.21.51.46.74.77.26.64.69,1.27,1.28,1.87.59.61,1.39,1.11,2.41,1.51,1.02.4,2.29.6,3.81.6,2.46,0,4.31-.4,5.54-1.19,1.23-.8,1.85-1.87,1.85-3.24,0-.98-.33-1.78-.99-2.38s-1.7-1.15-3.12-1.65c-1.42-.49-3.3-1.02-5.65-1.59-2.84-.61-5.25-1.39-7.24-2.36-1.99-.97-3.48-2.21-4.49-3.75-1-1.53-1.51-3.44-1.51-5.71s.62-4.29,1.87-6.05c1.25-1.76,3.01-3.14,5.28-4.15,2.27-1,4.98-1.51,8.12-1.51,2.54,0,4.78.34,6.73,1.02,1.95.68,3.58,1.57,4.88,2.67,1.31,1.1,2.3,2.27,2.98,3.52.68,1.25,1.04,2.46,1.08,3.63,0,.3-.11.58-.34.82-.23.25-.51.37-.85.37h-6.36c-.38,0-.72-.08-1.02-.23-.3-.15-.55-.42-.74-.8-.23-.98-.9-1.85-2.02-2.58-1.12-.74-2.57-1.11-4.34-1.11s-3.32.34-4.4,1.02c-1.08.68-1.62,1.72-1.62,3.12,0,.91.27,1.68.82,2.3.55.62,1.48,1.17,2.78,1.65,1.31.47,3.04.99,5.2,1.56,3.33.68,6.04,1.5,8.12,2.44,2.08.95,3.61,2.17,4.6,3.66.98,1.5,1.48,3.38,1.48,5.65,0,2.54-.71,4.71-2.13,6.53-1.42,1.82-3.37,3.21-5.85,4.17-2.48.96-5.37,1.45-8.66,1.45Z"/>
          <path class="cls-1" d="M122.82,40.56c-.42,0-.76-.13-1.02-.4-.27-.26-.4-.61-.4-1.02V2.23c0-.42.13-.76.4-1.02.26-.26.61-.4,1.02-.4h15.5c3.07,0,5.73.47,7.98,1.42,2.25.95,4.01,2.38,5.28,4.29,1.27,1.91,1.9,4.29,1.9,7.13s-.63,5.25-1.9,7.13c-1.27,1.87-3.03,3.27-5.28,4.17s-4.91,1.36-7.98,1.36h-7.61v12.83c0,.42-.13.76-.4,1.02-.27.27-.61.4-1.02.4h-6.47ZM130.55,19.26h7.5c1.93,0,3.44-.47,4.51-1.42,1.08-.95,1.62-2.37,1.62-4.26,0-1.67-.48-3.03-1.45-4.09-.97-1.06-2.53-1.59-4.68-1.59h-7.5v11.36Z"/>
          <path class="cls-1" d="M175.43,41.13c-3.33,0-6.25-.56-8.75-1.68-2.5-1.12-4.43-2.84-5.79-5.17-1.36-2.33-2.04-5.29-2.04-8.89V2.23c0-.42.13-.76.4-1.02.26-.26.61-.4,1.02-.4h6.19c.42,0,.76.13,1.02.4.26.27.4.61.4,1.02v23.11c0,2.8.66,4.88,1.99,6.25,1.32,1.36,3.18,2.04,5.57,2.04s4.18-.68,5.51-2.04c1.33-1.36,1.99-3.44,1.99-6.25V2.23c0-.42.14-.76.43-1.02.28-.26.61-.4.99-.4h6.25c.38,0,.7.13.97.4.26.27.4.61.4,1.02v23.17c0,3.6-.68,6.56-2.04,8.89-1.36,2.33-3.28,4.05-5.74,5.17-2.46,1.12-5.38,1.67-8.75,1.67Z"/>
          <path class="cls-1" d="M198.73,40.56c-.42,0-.76-.13-1.02-.4-.27-.26-.4-.61-.4-1.02V2.23c0-.42.13-.76.4-1.02.26-.26.61-.4,1.02-.4h14.25c3.79,0,6.95.6,9.48,1.79,2.54,1.19,4.48,2.93,5.82,5.22s2.05,5.12,2.13,8.49c.04,1.67.06,3.12.06,4.37s-.02,2.69-.06,4.32c-.11,3.52-.81,6.44-2.1,8.75-1.29,2.31-3.18,4.02-5.68,5.14-2.5,1.12-5.62,1.68-9.37,1.68h-14.54ZM206.34,33.23h6.64c1.89,0,3.44-.28,4.66-.85,1.21-.57,2.11-1.47,2.7-2.7.59-1.23.9-2.83.94-4.8.04-1.1.07-2.08.09-2.95.02-.87.02-1.74,0-2.61-.02-.87-.05-1.84-.09-2.9-.08-2.84-.8-4.93-2.19-6.27s-3.51-2.02-6.39-2.02h-6.36v25.1h0Z"/>
        </g>
        <path class="cls-1" d="M45.49,16.79c1.62-4.8,6.16-8.25,11.5-8.25,1.65,0,3.23.33,4.67.93,4.79-3.07,7.47-1.59,7.47-1.59-1.54,1.87-2.42,4.03-2.79,5.06,1.74,2.1,2.79,4.8,2.79,7.74,0,6.71-5.44,12.14-12.14,12.14-4.11,0-7.69-2.22-9.76-4.67-.63-.75-1.83-.56-2.18.36-.68,1.77-1.68,3.19-2.82,4.86-.41.6-.35,1.42.17,1.94,4.03,4.02,9.71,6.39,15.94,5.99,10.5-.67,18.91-9.31,19.31-19.82C78.1,9.71,68.68.01,57,.01c0,0-14.38-1.12-20.67,16.4-5.42,15.11-12.2,15.93-14.18,16.18h-1.55c-1.64,0-3.2-.45-4.62-1.04-4.73,3.04-7.39,1.57-7.39,1.57,1.52-1.85,2.4-3.98,2.76-5-1.91-2.3-2.97-5.32-2.72-8.59.44-5.8,5.1-10.53,10.9-11.03,4.59-.4,8.71,1.79,11.05,5.27.6.9,1.98.65,2.28-.38.58-1.96,1.38-3.82,2.39-5.55.36-.61.26-1.39-.24-1.89C31.01,1.99,25.4-.34,19.24.06,8.87.73.57,9.28.17,19.66c-.44,11.65,8.87,21.24,20.43,21.24,6.06,0,11.51-2.64,15.25-6.83,0,0,4.97-4.18,9.64-17.28Z"/>
      </g>
      <g>
        <path class="cls-1" d="M3.4,58.53c-.71,0-1.32-.12-1.81-.37-.49-.25-.87-.61-1.13-1.07-.26-.46-.41-1.02-.44-1.67,0-.31-.01-.65-.01-1.01s0-.71.01-1.04c.03-.64.18-1.2.44-1.67.27-.47.64-.83,1.14-1.08.49-.25,1.1-.37,1.8-.37.52,0,.99.07,1.4.21s.77.33,1.06.57c.29.24.52.52.68.85.16.32.25.67.25,1.05,0,.07-.01.13-.06.17-.05.05-.11.07-.18.07h-1.09c-.08,0-.15-.02-.21-.06s-.09-.11-.12-.21c-.12-.51-.33-.85-.63-1.04-.3-.18-.67-.28-1.12-.28-.51,0-.92.14-1.23.43-.31.29-.47.76-.49,1.42-.02.63-.02,1.27,0,1.93.02.66.19,1.13.49,1.42.31.29.72.43,1.23.43.44,0,.82-.09,1.12-.28.3-.19.51-.53.63-1.03.02-.11.06-.18.12-.22s.12-.06.21-.06h1.09c.07,0,.13.02.18.07.05.05.07.1.06.17,0,.38-.09.73-.25,1.05-.16.32-.39.6-.68.85-.29.24-.64.43-1.06.57-.41.14-.88.21-1.4.21Z"/>
        <path class="cls-1" d="M10.67,58.53c-.61,0-1.13-.11-1.55-.32-.42-.22-.74-.52-.96-.91-.22-.39-.34-.85-.37-1.37,0-.14-.01-.31-.01-.51s0-.37.01-.51c.03-.53.16-.99.39-1.38.23-.39.55-.69.97-.9.42-.22.93-.32,1.52-.32s1.11.11,1.52.32.74.52.97.9c.23.39.35.85.39,1.38,0,.14.01.31.01.51s0,.37-.01.51c-.03.52-.16.98-.37,1.37-.22.39-.54.69-.96.91-.42.21-.93.32-1.55.32ZM10.67,57.39c.41,0,.72-.13.94-.39.22-.26.35-.63.37-1.13,0-.12.01-.27.01-.45s0-.33-.01-.45c-.02-.49-.15-.87-.37-1.13-.22-.26-.54-.39-.94-.39s-.72.13-.94.39c-.22.26-.35.64-.37,1.13,0,.12-.01.27-.01.45s0,.33.01.45c.02.5.15.88.37,1.13.22.26.54.39.94.39Z"/>
        <path class="cls-1" d="M17.49,58.53c-.61,0-1.13-.11-1.55-.32-.42-.22-.74-.52-.96-.91-.22-.39-.34-.85-.37-1.37,0-.14-.01-.31-.01-.51s0-.37.01-.51c.03-.53.16-.99.39-1.38.23-.39.55-.69.97-.9.42-.22.93-.32,1.52-.32s1.11.11,1.52.32.74.52.97.9c.23.39.35.85.39,1.38,0,.14.01.31.01.51s0,.37-.01.51c-.03.52-.16.98-.37,1.37s-.54.69-.96.91c-.42.21-.93.32-1.55.32ZM17.49,57.39c.41,0,.72-.13.94-.39.22-.26.35-.63.37-1.13,0-.12.01-.27.01-.45s0-.33-.01-.45c-.02-.49-.15-.87-.37-1.13-.22-.26-.54-.39-.94-.39s-.72.13-.94.39c-.22.26-.35.64-.37,1.13,0,.12-.01.27-.01.45s0,.33.01.45c.02.5.15.88.37,1.13.22.26.54.39.94.39Z"/>
        <path class="cls-1" d="M21.94,60.61c-.08,0-.14-.03-.2-.08-.05-.05-.08-.12-.08-.2v-7.62c0-.08.03-.14.08-.2.05-.05.12-.08.2-.08h.91c.08,0,.15.03.2.08s.07.12.07.2v.46c.18-.25.43-.45.73-.61s.67-.24,1.12-.24c.41,0,.76.07,1.06.2s.55.32.75.56c.2.24.35.53.46.86.11.33.17.69.18,1.09,0,.13.01.27.01.4s0,.28-.01.41c0,.38-.07.74-.17,1.06s-.26.61-.47.85-.45.43-.75.57c-.3.14-.65.21-1.06.21s-.77-.07-1.06-.22c-.29-.15-.53-.35-.71-.59v2.61c0,.08-.02.14-.07.2s-.12.08-.2.08h-.98ZM24.54,57.3c.33,0,.59-.07.77-.21.18-.14.32-.33.4-.56.08-.23.13-.48.14-.76.02-.23.02-.46,0-.69-.02-.28-.06-.53-.14-.76s-.21-.42-.4-.56c-.18-.14-.44-.21-.77-.21s-.57.07-.77.22c-.2.15-.34.33-.43.56-.09.23-.14.46-.16.7,0,.14-.01.28-.01.44s0,.3.01.45c0,.23.06.45.16.66.1.21.25.39.44.52.19.14.44.21.75.21Z"/>
        <path class="cls-1" d="M31.3,58.53c-.85,0-1.53-.25-2.03-.74-.5-.49-.77-1.19-.81-2.1,0-.08-.01-.17-.01-.29s0-.21.01-.28c.03-.58.16-1.07.4-1.5.23-.42.56-.75.97-.97.41-.23.9-.34,1.46-.34.62,0,1.14.13,1.57.39.42.26.74.61.96,1.07s.32.98.32,1.58v.24c0,.08-.03.14-.08.2-.05.05-.12.08-.21.08h-3.82v.09c0,.27.06.52.16.74.1.23.24.41.43.55.19.14.41.21.67.21.22,0,.39-.03.54-.1.15-.07.27-.14.36-.22.09-.08.16-.15.2-.21.07-.09.12-.15.17-.17.04-.02.11-.03.19-.03h.99c.08,0,.14.02.19.07.05.05.07.1.06.17,0,.12-.07.27-.19.45-.12.18-.29.35-.51.52-.22.17-.5.31-.83.42-.33.11-.71.17-1.14.17ZM30.03,54.91h2.54v-.03c0-.3-.05-.56-.15-.78-.1-.22-.25-.4-.44-.53-.19-.13-.42-.2-.69-.2s-.5.07-.69.2c-.19.13-.34.31-.43.53-.1.22-.14.48-.14.78v.03h0Z"/>
        <path class="cls-1" d="M35.64,58.42c-.08,0-.14-.03-.2-.08-.05-.05-.08-.12-.08-.2v-5.42c0-.08.03-.15.08-.21.05-.05.12-.08.2-.08h.93c.08,0,.14.03.2.08s.09.12.09.21v.47c.18-.25.4-.43.69-.56.28-.13.6-.2.97-.2h.47c.08,0,.15.03.2.08s.07.12.07.2v.83c0,.08-.02.14-.07.2-.05.05-.12.08-.2.08h-.9c-.37,0-.65.1-.86.31-.2.21-.3.49-.3.85v3.17c0,.08-.03.14-.08.2s-.12.08-.21.08h-1Z"/>
        <path class="cls-1" d="M41.9,58.53c-.4,0-.76-.08-1.08-.24-.32-.16-.58-.37-.77-.63-.19-.27-.28-.56-.28-.89,0-.54.22-.96.65-1.28.43-.32,1.01-.53,1.72-.64l1.58-.23v-.24c0-.32-.08-.57-.24-.75-.16-.18-.44-.27-.83-.27-.28,0-.5.06-.67.17-.17.11-.3.26-.39.44-.06.1-.15.15-.27.15h-.91c-.08,0-.15-.02-.19-.07-.04-.05-.06-.11-.06-.18,0-.12.06-.27.15-.45.09-.18.24-.35.44-.51.2-.17.46-.3.77-.42s.69-.17,1.14-.17c.48,0,.89.06,1.23.18.33.12.6.28.8.48s.35.43.44.7c.09.27.14.55.14.85v3.61c0,.08-.03.14-.08.2s-.12.08-.2.08h-.93c-.08,0-.15-.03-.2-.08s-.07-.12-.07-.2v-.45c-.1.15-.23.28-.4.41s-.37.23-.62.31c-.24.08-.53.12-.86.12ZM42.29,57.44c.27,0,.51-.06.73-.17.22-.12.39-.29.52-.54s.19-.55.19-.91v-.24l-1.15.18c-.45.07-.79.18-1.01.33s-.33.34-.33.56c0,.17.05.31.16.43.1.12.24.21.4.27.16.06.33.09.51.09Z"/>
        <path class="cls-1" d="M49.44,58.42c-.46,0-.85-.08-1.16-.24-.31-.16-.55-.4-.7-.72-.15-.32-.23-.72-.23-1.19v-2.61h-.91c-.08,0-.14-.03-.2-.08s-.08-.12-.08-.2v-.67c0-.08.03-.14.08-.2s.12-.08.2-.08h.91v-1.91c0-.08.02-.14.07-.2.05-.05.12-.08.2-.08h.93c.08,0,.14.03.2.08s.08.12.08.2v1.91h1.44c.08,0,.14.03.2.08s.08.12.08.2v.67c0,.08-.03.14-.08.2s-.12.08-.2.08h-1.44v2.5c0,.31.06.56.17.74.11.18.3.27.58.27h.79c.08,0,.14.03.2.08s.08.12.08.2v.71c0,.08-.03.14-.08.2s-.12.08-.2.08h-.93Z"/>
        <path class="cls-1" d="M51.9,51.44c-.08,0-.15-.02-.2-.07-.05-.05-.07-.12-.07-.2v-.83c0-.08.02-.14.07-.2.05-.05.12-.08.2-.08h1.05c.08,0,.15.03.21.08s.08.12.08.2v.83c0,.08-.03.15-.08.2s-.12.07-.21.07h-1.05ZM51.95,58.42c-.08,0-.14-.03-.2-.08s-.08-.12-.08-.2v-5.43c0-.08.03-.14.08-.2s.12-.08.2-.08h.96c.08,0,.15.03.2.08s.07.12.07.2v5.43c0,.08-.02.14-.07.2-.05.05-.12.08-.2.08h-.96Z"/>
        <path class="cls-1" d="M56.83,58.42c-.12,0-.21-.03-.27-.09s-.11-.12-.14-.2l-2.15-5.34s-.02-.07-.02-.1c0-.07.02-.13.07-.18.05-.05.11-.07.18-.07h.93c.09,0,.16.03.21.07.05.05.08.1.09.14l1.53,4.04,1.53-4.04s.05-.09.09-.14c.05-.05.12-.07.21-.07h.94c.06,0,.12.03.17.07.05.05.07.11.07.18,0,.03,0,.07-.01.1l-2.16,5.34c-.03.08-.08.14-.14.2s-.15.09-.28.09h-.85Z"/>
        <path class="cls-1" d="M62.82,58.53c-.4,0-.76-.08-1.08-.24-.32-.16-.58-.37-.77-.63-.19-.27-.28-.56-.28-.89,0-.54.22-.96.65-1.28.43-.32,1.01-.53,1.72-.64l1.58-.23v-.24c0-.32-.08-.57-.24-.75-.16-.18-.44-.27-.83-.27-.28,0-.5.06-.67.17-.17.11-.3.26-.39.44-.06.1-.15.15-.27.15h-.91c-.08,0-.15-.02-.19-.07-.04-.05-.06-.11-.06-.18,0-.12.06-.27.15-.45.09-.18.24-.35.44-.51.2-.17.46-.3.77-.42s.69-.17,1.14-.17c.48,0,.89.06,1.23.18.33.12.6.28.8.48s.35.43.44.7c.09.27.14.55.14.85v3.61c0,.08-.03.14-.08.2s-.12.08-.2.08h-.93c-.08,0-.15-.03-.2-.08s-.07-.12-.07-.2v-.45c-.1.15-.23.28-.4.41s-.37.23-.62.31c-.24.08-.53.12-.86.12ZM63.21,57.44c.27,0,.51-.06.73-.17.22-.12.39-.29.52-.54s.19-.55.19-.91v-.24l-1.15.18c-.45.07-.79.18-1.01.33s-.33.34-.33.56c0,.17.05.31.16.43.1.12.24.21.4.27.16.06.33.09.51.09Z"/>
        <path class="cls-1" d="M72.51,58.53c-.4,0-.75-.07-1.05-.2-.3-.13-.55-.32-.75-.57-.2-.25-.35-.54-.46-.87-.11-.33-.17-.7-.18-1.1,0-.14-.01-.26-.01-.37s0-.24.01-.37c.02-.38.07-.74.18-1.07.1-.33.26-.62.46-.87.2-.25.46-.44.76-.58.3-.14.65-.21,1.05-.21s.77.07,1.05.21c.29.14.53.32.72.55v-2.56c0-.08.02-.14.07-.2.05-.05.12-.08.2-.08h.98c.08,0,.14.03.2.08.05.05.08.12.08.2v7.62c0,.08-.03.14-.08.2-.05.05-.12.08-.2.08h-.91c-.08,0-.15-.03-.2-.08s-.07-.12-.07-.2v-.43c-.19.24-.44.43-.73.59-.3.15-.67.23-1.11.23ZM72.93,57.3c.32,0,.58-.07.77-.22.19-.15.33-.33.43-.56.09-.23.14-.46.15-.7,0-.14.01-.29.01-.44s0-.3-.01-.44c0-.23-.06-.45-.16-.66s-.25-.39-.44-.52c-.19-.14-.44-.21-.75-.21-.32,0-.58.07-.77.21-.19.14-.32.33-.41.56-.08.23-.13.48-.15.76,0,.23,0,.46,0,.69.02.28.07.53.15.76.08.23.22.42.41.56.19.14.44.21.77.21Z"/>
        <path class="cls-1" d="M79.92,58.53c-.85,0-1.53-.25-2.03-.74-.5-.49-.77-1.19-.81-2.1,0-.08-.01-.17-.01-.29s0-.21.01-.28c.03-.58.16-1.07.4-1.5s.56-.75.97-.97c.41-.23.9-.34,1.46-.34.62,0,1.14.13,1.57.39.42.26.74.61.96,1.07.22.46.32.98.32,1.58v.24c0,.08-.03.14-.08.2-.05.05-.12.08-.21.08h-3.82v.09c0,.27.06.52.16.74.1.23.24.41.43.55.19.14.41.21.67.21.22,0,.39-.03.54-.1.15-.07.27-.14.36-.22.09-.08.16-.15.2-.21.07-.09.12-.15.17-.17s.11-.03.19-.03h.99c.08,0,.14.02.19.07.05.05.07.1.06.17,0,.12-.07.27-.19.45-.12.18-.29.35-.51.52-.22.17-.5.31-.83.42-.33.11-.71.17-1.14.17ZM78.66,54.91h2.54v-.03c0-.3-.05-.56-.15-.78-.1-.22-.25-.4-.44-.53-.19-.13-.42-.2-.69-.2s-.5.07-.69.2c-.19.13-.34.31-.43.53-.1.22-.14.48-.14.78v.03h0Z"/>
        <path class="cls-1" d="M89.86,58.53c-.68,0-1.27-.11-1.76-.34-.49-.23-.88-.58-1.15-1.05-.28-.47-.43-1.06-.45-1.77,0-.33-.01-.66-.01-.98s0-.65.01-.99c.02-.7.18-1.28.46-1.75.28-.47.67-.82,1.17-1.06s1.07-.36,1.73-.36,1.24.12,1.74.36c.5.24.89.59,1.17,1.06.28.47.44,1.05.46,1.75.02.34.02.67.02.99s0,.65-.02.98c-.02.71-.17,1.3-.45,1.77-.28.47-.66.82-1.16,1.05s-1.08.34-1.77.34ZM89.86,57.21c.5,0,.91-.15,1.22-.44.31-.3.48-.78.51-1.45.02-.34.02-.65.02-.94s0-.6-.02-.93c-.02-.44-.1-.81-.25-1.09-.15-.28-.35-.48-.6-.61s-.54-.19-.88-.19-.61.06-.86.19c-.25.13-.45.33-.6.61-.15.28-.23.64-.25,1.09,0,.33-.01.64-.01.93s0,.6.01.94c.02.67.19,1.15.51,1.45.32.3.72.44,1.21.44Z"/>
        <path class="cls-1" d="M97.94,58.53c-.44,0-.82-.08-1.11-.23s-.54-.35-.73-.59v.43c0,.08-.02.14-.07.2s-.12.08-.2.08h-.91c-.08,0-.14-.03-.2-.08-.05-.05-.08-.12-.08-.2v-7.62c0-.08.03-.14.08-.2.05-.05.12-.08.2-.08h.98c.08,0,.15.03.2.08s.07.12.07.2v2.56c.19-.22.43-.4.72-.55.29-.14.64-.21,1.05-.21s.76.07,1.06.21.55.33.75.58c.2.25.36.54.47.87.11.33.17.69.17,1.07,0,.14.01.26.01.37s0,.24-.01.37c-.02.4-.08.77-.18,1.1s-.26.62-.46.87c-.2.25-.45.44-.75.57-.3.13-.65.2-1.06.2ZM97.51,57.3c.33,0,.59-.07.77-.21.18-.14.32-.33.4-.56s.13-.48.14-.76c.02-.23.02-.46,0-.69-.02-.28-.06-.53-.14-.76s-.21-.42-.4-.56c-.18-.14-.44-.21-.77-.21-.31,0-.56.07-.75.21s-.34.31-.44.52c-.1.21-.15.43-.16.66,0,.14-.01.29-.01.44s0,.3.01.44c.02.24.07.47.16.7s.23.41.43.56c.2.15.45.22.77.22Z"/>
        <path class="cls-1" d="M101.95,58.42c-.08,0-.14-.03-.2-.08-.05-.05-.08-.12-.08-.2v-5.42c0-.08.03-.15.08-.21.05-.05.12-.08.2-.08h.93c.08,0,.14.03.2.08s.09.12.09.21v.47c.18-.25.4-.43.69-.56.28-.13.6-.2.97-.2h.47c.08,0,.15.03.2.08s.07.12.07.2v.83c0,.08-.02.14-.07.2s-.12.08-.2.08h-.9c-.37,0-.65.1-.86.31-.2.21-.3.49-.3.85v3.17c0,.08-.03.14-.08.2-.05.05-.12.08-.21.08h-1Z"/>
        <path class="cls-1" d="M108.22,58.53c-.4,0-.76-.08-1.08-.24-.32-.16-.58-.37-.77-.63-.19-.27-.28-.56-.28-.89,0-.54.22-.96.65-1.28.43-.32,1.01-.53,1.72-.64l1.58-.23v-.24c0-.32-.08-.57-.24-.75s-.44-.27-.83-.27c-.28,0-.5.06-.67.17-.17.11-.3.26-.39.44-.06.1-.15.15-.27.15h-.91c-.08,0-.15-.02-.19-.07-.04-.05-.06-.11-.06-.18,0-.12.06-.27.15-.45.09-.18.24-.35.44-.51.2-.17.46-.3.77-.42.31-.12.69-.17,1.14-.17.48,0,.89.06,1.23.18.33.12.6.28.8.48s.35.43.44.7c.09.27.14.55.14.85v3.61c0,.08-.03.14-.08.2-.05.05-.12.08-.2.08h-.93c-.08,0-.15-.03-.2-.08s-.07-.12-.07-.2v-.45c-.1.15-.23.28-.4.41s-.37.23-.62.31c-.24.08-.53.12-.86.12ZM108.61,57.44c.27,0,.51-.06.73-.17s.39-.29.52-.54.19-.55.19-.91v-.24l-1.15.18c-.45.07-.79.18-1.01.33-.22.15-.33.34-.33.56,0,.17.05.31.16.43.1.12.24.21.4.27.16.06.33.09.51.09Z"/>
        <path class="cls-1" d="M115.32,58.53c-.46,0-.85-.05-1.18-.16-.33-.11-.59-.24-.8-.4-.21-.16-.36-.32-.46-.48-.1-.16-.15-.3-.16-.4,0-.08.02-.15.07-.2.06-.05.12-.07.19-.07h.91s.06,0,.08.01c.02,0,.05.03.09.07.1.08.21.17.32.27s.24.17.4.24c.15.07.35.1.58.1.3,0,.55-.06.75-.18.2-.12.3-.29.3-.51,0-.16-.04-.29-.13-.39-.09-.1-.25-.19-.49-.27-.24-.08-.58-.17-1.01-.26-.43-.1-.79-.23-1.07-.38-.28-.15-.49-.35-.63-.58-.14-.23-.21-.5-.21-.81s.09-.59.27-.86.45-.5.81-.67c.36-.18.8-.27,1.33-.27.41,0,.78.05,1.08.16.31.1.56.23.77.39.2.15.36.31.47.47.11.16.17.29.17.41,0,.08-.02.15-.07.2-.05.05-.12.07-.18.07h-.85s-.07,0-.1-.02-.06-.03-.09-.06c-.08-.08-.18-.16-.28-.24-.1-.08-.22-.16-.36-.22s-.33-.1-.56-.1c-.29,0-.51.06-.67.19-.15.13-.23.29-.23.48,0,.13.04.24.11.34.07.1.22.19.44.27.22.08.56.17,1.01.27.51.09.92.23,1.23.41.3.18.52.39.64.62.13.23.19.49.19.78,0,.35-.1.66-.3.93-.2.28-.5.49-.9.65-.39.16-.88.23-1.47.23Z"/>
        <path class="cls-1" d="M122.59,60.61c-.06,0-.12-.02-.16-.07-.05-.05-.07-.1-.07-.16,0-.03,0-.06,0-.09,0-.03.02-.06.04-.1l.9-2.13-2.21-5.21c-.03-.08-.05-.13-.05-.16,0-.07.03-.13.08-.18.05-.05.1-.07.17-.07h.93c.09,0,.16.02.21.07.05.05.08.1.1.15l1.53,3.76,1.58-3.76c.02-.06.06-.11.1-.16.05-.04.12-.06.21-.06h.92c.06,0,.12.02.17.07s.07.1.07.16c0,.05-.02.11-.05.18l-3.26,7.54c-.03.06-.07.11-.12.16-.05.04-.12.06-.21.06h-.91Z"/>
        <path class="cls-1" d="M133.39,58.53c-.71,0-1.31-.11-1.79-.32s-.84-.49-1.09-.83c-.25-.34-.38-.7-.4-1.08,0-.07.02-.13.07-.17s.1-.07.17-.07h1.02c.1,0,.17.02.22.06.05.04.09.09.13.16.05.15.13.29.27.43s.31.26.54.35c.23.09.51.14.86.14.55,0,.96-.09,1.24-.28.27-.18.41-.43.41-.75,0-.22-.07-.4-.22-.54s-.37-.26-.67-.37c-.3-.11-.7-.23-1.2-.35-.58-.14-1.06-.3-1.45-.5-.39-.2-.68-.44-.88-.74-.2-.3-.29-.68-.29-1.14s.12-.84.36-1.19c.24-.35.59-.62,1.04-.82.45-.2.98-.3,1.61-.3.5,0,.94.07,1.32.2.38.13.7.31.96.53.25.22.45.45.58.7.13.25.21.49.21.73,0,.06-.02.12-.06.17-.04.05-.1.07-.18.07h-1.07c-.06,0-.12-.02-.18-.05-.06-.03-.11-.09-.15-.17-.05-.24-.2-.44-.45-.61-.25-.17-.58-.25-.98-.25s-.75.08-1,.23-.38.39-.38.71c0,.22.06.39.19.54s.33.27.61.37c.28.11.65.22,1.11.35.65.15,1.19.31,1.6.51.41.19.72.44.91.73.19.3.29.67.29,1.12,0,.51-.14.94-.41,1.3-.27.36-.65.63-1.15.82-.49.19-1.06.29-1.71.29Z"/>
        <path class="cls-1" d="M140.43,58.53c-.85,0-1.53-.25-2.03-.74s-.77-1.19-.81-2.1c0-.08-.01-.17-.01-.29s0-.21.01-.28c.03-.58.16-1.07.4-1.5s.56-.75.97-.97c.41-.23.9-.34,1.46-.34.62,0,1.14.13,1.57.39.42.26.74.61.95,1.07.22.46.32.98.32,1.58v.24c0,.08-.03.14-.08.2-.05.05-.12.08-.21.08h-3.82v.09c0,.27.06.52.16.74.1.23.24.41.43.55.19.14.41.21.67.21.21,0,.39-.03.54-.1.15-.07.27-.14.36-.22.09-.08.16-.15.2-.21.07-.09.12-.15.17-.17s.11-.03.19-.03h.99c.08,0,.14.02.19.07.05.05.07.1.06.17,0,.12-.07.27-.19.45-.12.18-.29.35-.51.52-.22.17-.5.31-.83.42-.33.11-.71.17-1.14.17ZM139.16,54.91h2.54v-.03c0-.3-.05-.56-.15-.78-.1-.22-.25-.4-.44-.53-.19-.13-.42-.2-.69-.2s-.5.07-.69.2c-.19.13-.34.31-.43.53-.1.22-.14.48-.14.78v.03h0Z"/>
        <path class="cls-1" d="M144.76,58.42c-.08,0-.14-.03-.2-.08-.05-.05-.08-.12-.08-.2v-5.42c0-.08.03-.15.08-.21.05-.05.12-.08.2-.08h.93c.08,0,.14.03.2.08s.09.12.09.21v.47c.18-.25.4-.43.69-.56.28-.13.6-.2.97-.2h.47c.08,0,.15.03.2.08s.07.12.07.2v.83c0,.08-.02.14-.07.2s-.12.08-.2.08h-.9c-.37,0-.65.1-.86.31-.2.21-.3.49-.3.85v3.17c0,.08-.03.14-.08.2-.05.05-.12.08-.21.08h-1Z"/>
        <path class="cls-1" d="M151.41,58.42c-.12,0-.21-.03-.27-.09s-.11-.12-.14-.2l-2.15-5.34s-.02-.07-.02-.1c0-.07.02-.13.07-.18s.11-.07.18-.07h.93c.09,0,.16.03.21.07.05.05.08.1.09.14l1.53,4.04,1.53-4.04s.05-.09.09-.14.12-.07.21-.07h.94c.06,0,.12.03.17.07.05.05.07.11.07.18,0,.03,0,.07-.01.1l-2.16,5.34c-.03.08-.08.14-.14.2s-.15.09-.28.09h-.85Z"/>
        <path class="cls-1" d="M156.13,51.44c-.08,0-.15-.02-.2-.07-.05-.05-.07-.12-.07-.2v-.83c0-.08.02-.14.07-.2s.12-.08.2-.08h1.05c.08,0,.15.03.21.08.05.05.08.12.08.2v.83c0,.08-.03.15-.08.2s-.12.07-.21.07h-1.05ZM156.17,58.42c-.08,0-.14-.03-.2-.08s-.08-.12-.08-.2v-5.43c0-.08.03-.14.08-.2s.12-.08.2-.08h.95c.08,0,.15.03.2.08.05.05.07.12.07.2v5.43c0,.08-.03.14-.07.2-.05.05-.12.08-.2.08h-.95Z"/>
        <path class="cls-1" d="M161.53,58.53c-.55,0-1.04-.1-1.46-.31s-.74-.51-.98-.9-.36-.87-.39-1.43c0-.12-.01-.27-.01-.45s0-.34.01-.47c.02-.56.15-1.04.39-1.43s.56-.7.98-.9c.42-.21.9-.31,1.46-.31.49,0,.91.07,1.25.21.35.14.63.31.85.52.22.21.39.42.5.65.11.23.17.43.18.62,0,.08-.02.15-.08.2-.06.05-.12.07-.2.07h-1.01c-.08,0-.14-.02-.18-.06s-.08-.1-.12-.17c-.12-.31-.27-.52-.45-.65-.19-.13-.43-.19-.72-.19-.38,0-.69.12-.91.36-.23.24-.35.62-.36,1.15-.02.29-.02.56,0,.81.02.53.14.91.36,1.15.23.24.53.36.91.36.3,0,.54-.06.73-.19.18-.13.33-.34.45-.65.04-.08.08-.13.12-.17s.1-.06.18-.06h1.01c.08,0,.14.03.2.07.06.05.08.12.08.2,0,.14-.04.29-.11.47-.07.17-.17.35-.31.53-.14.18-.32.35-.54.49-.22.15-.47.27-.78.36-.3.09-.65.14-1.05.14Z"/>
        <path class="cls-1" d="M165.74,51.44c-.08,0-.15-.02-.2-.07-.05-.05-.07-.12-.07-.2v-.83c0-.08.02-.14.07-.2s.12-.08.2-.08h1.05c.08,0,.15.03.21.08s.08.12.08.2v.83c0,.08-.03.15-.08.2s-.12.07-.21.07h-1.05ZM165.78,58.42c-.08,0-.14-.03-.2-.08-.05-.05-.08-.12-.08-.2v-5.43c0-.08.03-.14.08-.2s.12-.08.2-.08h.96c.08,0,.15.03.2.08.05.05.08.12.08.2v5.43c0,.08-.03.14-.08.2s-.12.08-.2.08h-.96Z"/>
        <path class="cls-1" d="M171.19,58.53c-.61,0-1.13-.11-1.55-.32-.42-.22-.74-.52-.96-.91-.22-.39-.34-.85-.37-1.37,0-.14-.01-.31-.01-.51s0-.37.01-.51c.03-.53.16-.99.39-1.38.23-.39.55-.69.97-.9.42-.22.93-.32,1.52-.32s1.11.11,1.52.32c.42.22.74.52.97.9.23.39.35.85.39,1.38,0,.14.01.31.01.51s0,.37-.01.51c-.03.52-.16.98-.37,1.37s-.54.69-.96.91c-.42.21-.93.32-1.55.32ZM171.19,57.39c.41,0,.72-.13.94-.39.22-.26.35-.63.37-1.13,0-.12.01-.27.01-.45s0-.33-.01-.45c-.02-.49-.15-.87-.37-1.13-.22-.26-.54-.39-.94-.39s-.72.13-.94.39c-.22.26-.34.64-.37,1.13,0,.12-.01.27-.01.45s0,.33.01.45c.02.5.15.88.37,1.13.22.26.54.39.94.39Z"/>
        <path class="cls-1" d="M177.63,58.53c-.46,0-.85-.05-1.18-.16-.33-.11-.59-.24-.8-.4-.21-.16-.36-.32-.46-.48-.1-.16-.15-.3-.16-.4,0-.08.02-.15.07-.2s.12-.07.19-.07h.91s.06,0,.08.01c.02,0,.05.03.09.07.1.08.21.17.32.27.11.09.24.17.4.24.15.07.35.1.58.1.3,0,.55-.06.75-.18.2-.12.3-.29.3-.51,0-.16-.04-.29-.13-.39-.09-.1-.25-.19-.49-.27-.24-.08-.58-.17-1.01-.26-.43-.1-.79-.23-1.07-.38-.28-.15-.49-.35-.63-.58-.14-.23-.21-.5-.21-.81s.09-.59.27-.86.45-.5.81-.67c.36-.18.8-.27,1.33-.27.41,0,.78.05,1.08.16.31.1.56.23.77.39s.36.31.47.47c.11.16.17.29.17.41,0,.08-.02.15-.07.2s-.12.07-.18.07h-.85s-.07,0-.1-.02c-.03-.02-.06-.03-.09-.06-.08-.08-.18-.16-.28-.24-.1-.08-.22-.16-.36-.22-.14-.07-.33-.1-.56-.1-.29,0-.51.06-.67.19-.15.13-.23.29-.23.48,0,.13.04.24.11.34s.22.19.44.27c.22.08.56.17,1.01.27.51.09.92.23,1.23.41.3.18.52.39.64.62.13.23.19.49.19.78,0,.35-.1.66-.3.93-.2.28-.5.49-.9.65-.39.16-.88.23-1.47.23Z"/>
        <path class="cls-1" d="M.56,70.69c-.08,0-.14-.03-.2-.08s-.08-.12-.08-.2v-7.49c0-.08.03-.15.08-.21s.12-.08.2-.08h3.09c.6,0,1.12.09,1.57.28.44.19.79.47,1.04.85.25.38.37.85.37,1.42s-.12,1.05-.37,1.42c-.25.37-.59.65-1.04.83-.44.18-.97.28-1.57.28h-1.72v2.69c0,.08-.02.14-.07.2s-.12.08-.2.08H.56ZM1.91,66.45h1.68c.44,0,.79-.11,1.02-.32.24-.21.36-.52.36-.94,0-.38-.11-.69-.33-.93s-.57-.35-1.05-.35h-1.68v2.53Z"/>
        <path class="cls-1" d="M10.04,70.81c-.47,0-.87-.11-1.21-.32s-.6-.51-.79-.9c-.18-.39-.28-.85-.28-1.38v-3.23c0-.08.03-.14.08-.2s.12-.08.2-.08h1.01c.08,0,.15.03.2.08s.07.12.07.2v3.17c0,.95.42,1.43,1.25,1.43.4,0,.72-.13.95-.38.23-.25.35-.6.35-1.05v-3.17c0-.08.03-.14.08-.2s.12-.08.2-.08h1.01c.08,0,.14.03.2.08s.08.12.08.2v5.43c0,.08-.03.14-.08.2s-.12.08-.2.08h-.93c-.08,0-.15-.03-.2-.08s-.07-.12-.07-.2v-.47c-.21.27-.46.48-.77.63-.31.15-.69.23-1.15.23ZM10.12,63.84c-.12,0-.18-.06-.18-.18,0-.06.02-.11.06-.15l.93-1.14c.08-.08.14-.14.2-.17s.13-.04.23-.04h1.15c.15,0,.22.07.22.22,0,.05-.02.1-.06.14l-1.43,1.17c-.06.05-.12.09-.18.12s-.14.03-.24.03h-.7Z"/>
        <path class="cls-1" d="M18.36,70.81c-.44,0-.82-.08-1.11-.23s-.54-.35-.73-.59v.43c0,.08-.02.14-.07.2s-.12.08-.2.08h-.91c-.08,0-.14-.03-.2-.08s-.08-.12-.08-.2v-7.62c0-.08.03-.14.08-.2s.12-.08.2-.08h.98c.08,0,.15.03.2.08s.07.12.07.2v2.56c.19-.22.43-.4.72-.55s.64-.21,1.05-.21.76.07,1.06.21.55.33.75.58c.2.25.36.54.47.87.11.33.17.69.17,1.07,0,.14.01.26.01.37s0,.24-.01.37c-.02.4-.08.77-.18,1.1s-.26.62-.46.87c-.2.25-.45.44-.75.57-.3.13-.65.2-1.06.2ZM17.93,69.58c.33,0,.59-.07.77-.21.18-.14.32-.33.4-.56.08-.23.13-.48.14-.76.02-.23.02-.46,0-.69-.02-.28-.06-.53-.14-.76s-.21-.42-.4-.56-.44-.21-.77-.21c-.31,0-.56.07-.75.21s-.34.31-.44.52c-.1.21-.15.43-.16.66,0,.14-.01.29-.01.44s0,.3.01.44c.02.24.07.47.16.7s.23.41.43.56c.2.14.45.22.77.22Z"/>
        <path class="cls-1" d="M22.47,70.69c-.08,0-.14-.03-.2-.08-.05-.05-.08-.12-.08-.2v-7.62c0-.08.03-.14.08-.2.05-.05.12-.08.2-.08h.96c.08,0,.14.03.2.08.05.05.08.12.08.2v7.62c0,.08-.03.14-.08.2-.05.05-.12.08-.2.08h-.96Z"/>
        <path class="cls-1" d="M25.54,63.72c-.08,0-.15-.02-.2-.07-.05-.05-.07-.12-.07-.2v-.83c0-.08.02-.14.07-.2s.12-.08.2-.08h1.05c.08,0,.15.03.21.08s.08.12.08.2v.83c0,.08-.03.15-.08.2-.05.05-.12.07-.21.07h-1.05ZM25.59,70.69c-.08,0-.14-.03-.2-.08-.05-.05-.08-.12-.08-.2v-5.43c0-.08.03-.14.08-.2.05-.05.12-.08.2-.08h.96c.08,0,.15.03.2.08s.07.12.07.2v5.43c0,.08-.02.14-.07.2s-.12.08-.2.08h-.96Z"/>
        <path class="cls-1" d="M31.02,70.81c-.55,0-1.04-.1-1.46-.31-.42-.21-.74-.51-.98-.9s-.36-.87-.39-1.43c0-.12-.01-.27-.01-.45s0-.34.01-.47c.02-.56.15-1.04.39-1.43s.56-.7.98-.9c.42-.21.9-.31,1.46-.31.49,0,.91.07,1.25.21.35.14.63.31.85.52.22.21.39.42.5.65.11.23.17.43.18.62,0,.08-.02.15-.07.2s-.12.07-.2.07h-1.01c-.08,0-.14-.02-.18-.06-.04-.04-.08-.1-.12-.17-.12-.31-.27-.52-.45-.65-.19-.13-.43-.19-.72-.19-.38,0-.69.12-.91.36-.23.24-.35.62-.36,1.15-.02.29-.02.56,0,.81.02.53.14.91.36,1.15.23.24.53.36.91.36.3,0,.54-.06.73-.19s.33-.34.45-.65c.04-.08.08-.13.12-.17.04-.04.1-.06.18-.06h1.01c.08,0,.14.03.2.07.06.05.08.12.07.2,0,.14-.04.29-.11.47-.07.17-.17.35-.31.53-.14.18-.32.35-.54.49-.22.15-.47.27-.78.36-.3.09-.65.14-1.05.14Z"/>
        <path class="cls-1" d="M37.73,70.81c-.61,0-1.13-.11-1.55-.32-.42-.22-.74-.52-.96-.91-.22-.39-.34-.85-.37-1.37,0-.14-.01-.31-.01-.51s0-.37.01-.51c.03-.53.16-.99.39-1.38.23-.39.55-.69.97-.9.42-.22.93-.32,1.52-.32s1.11.11,1.52.32.74.52.97.9c.23.39.35.85.39,1.38,0,.14.01.31.01.51s0,.37-.01.51c-.03.52-.16.98-.37,1.37s-.54.69-.96.91c-.42.21-.93.32-1.55.32ZM37.73,69.67c.41,0,.72-.13.94-.39.22-.26.35-.63.37-1.13,0-.12.01-.27.01-.45s0-.33-.01-.45c-.02-.49-.15-.87-.37-1.13-.22-.26-.54-.39-.94-.39s-.72.13-.94.39c-.22.26-.35.64-.37,1.13,0,.12-.01.27-.01.45s0,.33.01.45c.02.5.15.88.37,1.13.22.26.54.39.94.39Z"/>
        <path class="cls-1" d="M44.25,70.81c-.46,0-.85-.05-1.18-.16-.33-.11-.59-.24-.8-.4-.21-.16-.36-.32-.46-.48-.1-.16-.15-.3-.16-.4,0-.08.02-.15.07-.2.06-.05.12-.07.19-.07h.91s.06,0,.08.01c.02,0,.05.03.09.07.1.08.21.17.32.27s.24.17.4.24c.15.07.35.1.58.1.3,0,.55-.06.75-.18.2-.12.3-.29.3-.51,0-.16-.04-.29-.13-.39-.09-.1-.25-.19-.49-.27-.24-.08-.58-.17-1.01-.26-.43-.1-.79-.23-1.07-.38-.28-.15-.49-.35-.63-.58-.14-.23-.21-.5-.21-.81s.09-.59.27-.86c.18-.27.45-.5.81-.67.36-.18.8-.27,1.33-.27.41,0,.78.05,1.08.16.31.1.56.23.77.39.2.15.36.31.47.47s.17.29.17.41c0,.08-.02.15-.07.2s-.12.07-.18.07h-.85s-.07,0-.1-.02c-.03-.02-.06-.03-.09-.06-.08-.08-.18-.16-.28-.24-.1-.08-.22-.16-.36-.22s-.33-.1-.56-.1c-.29,0-.51.06-.67.19-.15.13-.23.29-.23.48,0,.13.04.24.11.34s.22.19.44.27c.22.08.56.17,1.01.27.51.09.92.23,1.23.41.3.18.52.39.64.62.13.23.19.49.19.78,0,.35-.1.66-.3.93-.2.28-.5.49-.9.65-.39.16-.88.23-1.47.23Z"/>
        <path class="cls-1" d="M53.12,70.81c-.4,0-.75-.07-1.05-.2-.3-.13-.55-.32-.75-.57-.2-.25-.35-.54-.46-.87-.11-.33-.17-.7-.18-1.1,0-.14-.01-.26-.01-.37s0-.24.01-.37c.02-.38.07-.74.18-1.07.1-.33.26-.62.46-.87.2-.25.46-.44.76-.58.3-.14.65-.21,1.05-.21s.77.07,1.05.21c.29.14.53.32.72.55v-2.56c0-.08.02-.14.07-.2.05-.05.12-.08.2-.08h.98c.08,0,.14.03.2.08s.08.12.08.2v7.62c0,.08-.03.14-.08.2s-.12.08-.2.08h-.91c-.08,0-.15-.03-.2-.08s-.07-.12-.07-.2v-.43c-.19.24-.44.43-.73.59-.3.15-.67.23-1.11.23ZM53.55,69.58c.32,0,.58-.07.77-.22.19-.15.33-.33.43-.56.09-.23.14-.46.15-.7,0-.14.01-.29.01-.44s0-.3-.01-.44c0-.23-.06-.45-.16-.66s-.25-.39-.44-.52c-.19-.14-.44-.21-.75-.21-.32,0-.58.07-.77.21-.19.14-.32.33-.41.56-.08.23-.13.48-.15.76,0,.23,0,.46,0,.69.02.28.07.53.15.76.08.23.22.42.41.56.19.14.44.21.77.21Z"/>
        <path class="cls-1" d="M60.62,70.81c-.85,0-1.53-.25-2.03-.74-.5-.49-.77-1.19-.81-2.1,0-.08-.01-.17-.01-.29s0-.21.01-.28c.03-.58.16-1.07.4-1.5s.56-.75.97-.97c.41-.23.9-.34,1.46-.34.62,0,1.14.13,1.57.39.42.26.74.61.96,1.07.22.46.32.98.32,1.58v.24c0,.08-.03.14-.08.2s-.12.08-.21.08h-3.82v.09c0,.27.06.52.16.74.1.23.24.41.43.55.19.14.41.21.67.21.22,0,.39-.03.54-.1.15-.07.27-.14.36-.22.09-.08.16-.15.2-.21.07-.09.12-.15.17-.17s.11-.03.19-.03h.99c.08,0,.14.02.19.07.05.05.07.1.06.17,0,.12-.07.27-.19.45-.12.18-.29.35-.51.52-.22.17-.5.31-.83.42-.33.11-.71.17-1.14.17ZM59.35,67.18h2.54v-.03c0-.3-.05-.56-.15-.78s-.25-.4-.44-.53c-.19-.13-.42-.2-.69-.2s-.5.07-.69.2c-.19.13-.34.31-.43.53-.1.22-.14.48-.14.78v.03h0Z"/>
        <path class="cls-1" d="M67.89,70.69c-.08,0-.14-.03-.2-.08s-.08-.12-.08-.2v-7.49c0-.08.03-.15.08-.21s.12-.08.2-.08h2.81c.78,0,1.41.12,1.92.36.5.24.88.59,1.14,1.06.26.47.39,1.04.4,1.72.02.34.02.64.02.9s0,.56-.02.89c-.02.71-.15,1.3-.39,1.77-.25.46-.62.81-1.11,1.04s-1.13.34-1.89.34h-2.87ZM69.22,69.37h1.49c.43,0,.78-.06,1.05-.18.27-.12.47-.32.59-.59.13-.27.19-.63.2-1.08,0-.23.01-.43.02-.6s0-.34,0-.52,0-.37-.02-.59c-.02-.63-.17-1.09-.47-1.39-.3-.3-.78-.45-1.43-.45h-1.43v5.41Z"/>
        <path class="cls-1" d="M78.23,70.81c-.85,0-1.53-.25-2.03-.74-.5-.49-.77-1.19-.81-2.1,0-.08-.01-.17-.01-.29s0-.21.01-.28c.03-.58.16-1.07.4-1.5s.56-.75.97-.97c.41-.23.9-.34,1.46-.34.62,0,1.14.13,1.57.39.42.26.74.61.96,1.07.22.46.32.98.32,1.58v.24c0,.08-.03.14-.08.2-.05.05-.12.08-.21.08h-3.82v.09c0,.27.06.52.16.74.1.23.24.41.43.55.19.14.41.21.67.21.22,0,.39-.03.54-.1.15-.07.27-.14.36-.22.09-.08.16-.15.2-.21.07-.09.12-.15.17-.17s.11-.03.19-.03h.99c.08,0,.14.02.19.07.05.05.07.1.06.17,0,.12-.07.27-.19.45-.12.18-.29.35-.51.52-.22.17-.5.31-.83.42-.33.11-.71.17-1.14.17ZM76.96,67.18h2.54v-.03c0-.3-.05-.56-.15-.78-.1-.22-.25-.4-.44-.53-.19-.13-.42-.2-.69-.2s-.5.07-.69.2c-.19.13-.34.31-.43.53-.1.22-.14.48-.14.78v.03h0Z"/>
        <path class="cls-1" d="M84.64,70.81c-.46,0-.85-.05-1.18-.16-.33-.11-.59-.24-.8-.4-.21-.16-.36-.32-.46-.48-.1-.16-.15-.3-.16-.4,0-.08.02-.15.07-.2.06-.05.12-.07.19-.07h.91s.06,0,.08.01c.02,0,.05.03.09.07.1.08.21.17.32.27s.24.17.4.24c.15.07.35.1.58.1.3,0,.55-.06.75-.18.2-.12.3-.29.3-.51,0-.16-.04-.29-.13-.39-.09-.1-.25-.19-.49-.27-.24-.08-.58-.17-1.01-.26-.43-.1-.79-.23-1.07-.38-.28-.15-.49-.35-.63-.58-.14-.23-.21-.5-.21-.81s.09-.59.27-.86.45-.5.81-.67c.36-.18.8-.27,1.33-.27.41,0,.78.05,1.08.16.31.1.56.23.77.39.2.15.36.31.47.47.11.16.17.29.17.41,0,.08-.02.15-.07.2-.05.05-.12.07-.18.07h-.85s-.07,0-.1-.02-.06-.03-.09-.06c-.08-.08-.18-.16-.28-.24-.1-.08-.22-.16-.36-.22s-.33-.1-.56-.1c-.29,0-.51.06-.67.19-.15.13-.23.29-.23.48,0,.13.04.24.11.34.07.1.22.19.44.27.22.08.56.17,1.01.27.51.09.92.23,1.23.41.3.18.52.39.64.62.13.23.19.49.19.78,0,.35-.1.66-.3.93-.2.28-.5.49-.9.65-.39.16-.88.23-1.47.23Z"/>
        <path class="cls-1" d="M88.87,72.88c-.08,0-.14-.03-.2-.08-.05-.05-.08-.12-.08-.2v-7.62c0-.08.03-.14.08-.2.05-.05.12-.08.2-.08h.91c.08,0,.15.03.2.08s.07.12.07.2v.46c.18-.25.43-.45.73-.61s.67-.24,1.12-.24c.41,0,.76.07,1.06.2s.55.32.75.56.35.53.46.86c.11.33.17.69.18,1.09,0,.13.01.27.01.4s0,.28-.01.41c0,.38-.07.74-.17,1.06s-.26.61-.47.85c-.2.24-.45.43-.75.57-.3.14-.65.21-1.06.21s-.77-.07-1.06-.22-.53-.35-.71-.59v2.61c0,.08-.02.14-.07.2s-.12.08-.2.08h-.98ZM91.47,69.58c.33,0,.59-.07.77-.21.18-.14.32-.33.4-.56s.13-.48.14-.76c.02-.23.02-.46,0-.69-.02-.28-.06-.53-.14-.76s-.21-.42-.4-.56c-.18-.14-.44-.21-.77-.21s-.57.07-.77.22c-.2.15-.34.33-.43.56-.09.23-.14.46-.16.7,0,.14-.01.28-.01.44s0,.3.01.45c0,.23.06.45.16.66.1.21.25.39.44.52.19.14.44.21.75.21Z"/>
        <path class="cls-1" d="M98.31,70.81c-.85,0-1.53-.25-2.03-.74-.5-.49-.77-1.19-.81-2.1,0-.08-.01-.17-.01-.29s0-.21.01-.28c.03-.58.16-1.07.4-1.5s.56-.75.97-.97c.41-.23.9-.34,1.46-.34.62,0,1.14.13,1.57.39.42.26.74.61.96,1.07.22.46.32.98.32,1.58v.24c0,.08-.03.14-.08.2-.05.05-.12.08-.21.08h-3.82v.09c0,.27.06.52.16.74.1.23.24.41.43.55.19.14.41.21.67.21.22,0,.39-.03.54-.1.15-.07.27-.14.36-.22.09-.08.16-.15.2-.21.07-.09.12-.15.17-.17s.11-.03.19-.03h.99c.08,0,.14.02.19.07.05.05.07.1.06.17,0,.12-.07.27-.19.45-.12.18-.29.35-.51.52-.22.17-.5.31-.83.42-.33.11-.71.17-1.14.17ZM97.04,67.18h2.54v-.03c0-.3-.05-.56-.15-.78-.1-.22-.25-.4-.44-.53-.19-.13-.42-.2-.69-.2s-.5.07-.69.2c-.19.13-.34.31-.43.53-.1.22-.14.48-.14.78v.03h0Z"/>
        <path class="cls-1" d="M102.73,70.69c-.08,0-.14-.03-.2-.08-.05-.05-.08-.12-.08-.2v-5.43c0-.08.03-.14.08-.2.05-.05.12-.08.2-.08h.94c.08,0,.14.03.2.08.05.05.08.12.08.2v.47c.2-.25.45-.45.77-.62.31-.17.7-.25,1.16-.25s.88.11,1.22.32c.35.21.61.51.8.89.19.38.28.84.28,1.38v3.23c0,.08-.03.14-.08.2-.05.05-.12.08-.2.08h-1.01c-.08,0-.14-.03-.2-.08-.05-.05-.08-.12-.08-.2v-3.17c0-.44-.11-.79-.33-1.05s-.54-.38-.95-.38-.72.13-.96.38c-.24.25-.36.6-.36,1.05v3.17c0,.08-.03.14-.08.2-.05.05-.12.08-.2.08h-1.01ZM105.94,63.9c-.2,0-.36-.03-.48-.1-.12-.07-.24-.13-.34-.2-.1-.07-.22-.1-.34-.1-.1,0-.17.03-.21.09s-.08.12-.12.17c-.04.06-.1.09-.18.09h-.53c-.05,0-.1-.02-.14-.06s-.06-.08-.06-.14c0-.12.02-.24.06-.39.04-.14.11-.28.2-.41s.21-.24.35-.32.31-.12.5-.12c.21,0,.37.03.49.1.12.07.24.13.34.2.1.07.22.1.34.1.1,0,.17-.03.21-.09s.08-.12.12-.18.1-.09.18-.09h.53c.06,0,.11.02.14.06.03.04.05.09.05.14,0,.12-.02.24-.06.39-.04.14-.11.28-.2.41s-.21.24-.35.32c-.14.08-.31.12-.51.12Z"/>
        <path class="cls-1" d="M111.45,70.81c-.4,0-.76-.08-1.08-.24-.32-.16-.58-.37-.77-.63s-.28-.56-.28-.89c0-.54.22-.96.65-1.28.43-.32,1.01-.53,1.72-.64l1.58-.23v-.24c0-.32-.08-.57-.24-.75s-.44-.27-.83-.27c-.28,0-.5.06-.67.17-.17.11-.3.26-.39.44-.06.1-.15.15-.27.15h-.91c-.08,0-.15-.02-.19-.07-.04-.05-.06-.11-.06-.18,0-.12.06-.27.15-.45.09-.18.24-.35.44-.51.2-.17.46-.3.77-.42.31-.12.69-.17,1.14-.17.48,0,.89.06,1.23.18.33.12.6.28.8.48s.35.43.44.7c.09.27.14.55.14.85v3.61c0,.08-.03.14-.08.2-.05.05-.12.08-.2.08h-.93c-.08,0-.15-.03-.2-.08s-.07-.12-.07-.2v-.45c-.1.15-.23.28-.4.41s-.37.23-.62.31c-.24.08-.53.12-.86.12ZM111.84,69.71c.27,0,.51-.06.73-.17s.39-.29.52-.54.19-.55.19-.91v-.24l-1.15.18c-.45.07-.79.18-1.01.33-.22.15-.33.34-.33.56,0,.17.05.31.16.43.1.12.24.21.4.27.16.06.33.09.51.09Z"/>
        <path class="cls-1" d="M118.59,70.81c-.4,0-.75-.07-1.05-.2-.3-.13-.55-.32-.75-.57-.2-.25-.35-.54-.46-.87-.11-.33-.17-.7-.18-1.1,0-.14-.01-.26-.01-.37s0-.24.01-.37c.02-.38.07-.74.18-1.07s.26-.62.46-.87c.2-.25.46-.44.76-.58.3-.14.65-.21,1.05-.21s.77.07,1.05.21c.29.14.53.32.72.55v-2.56c0-.08.02-.14.07-.2s.12-.08.2-.08h.98c.08,0,.14.03.2.08.05.05.08.12.08.2v7.62c0,.08-.03.14-.08.2-.05.05-.12.08-.2.08h-.91c-.08,0-.15-.03-.2-.08s-.07-.12-.07-.2v-.43c-.19.24-.44.43-.73.59-.3.15-.67.23-1.11.23ZM119.01,69.58c.32,0,.58-.07.77-.22.19-.15.33-.33.43-.56.09-.23.14-.46.15-.7,0-.14.01-.29.01-.44s0-.3-.01-.44c0-.23-.06-.45-.16-.66-.1-.21-.25-.39-.44-.52-.19-.14-.44-.21-.75-.21-.32,0-.58.07-.77.21-.19.14-.32.33-.41.56s-.13.48-.15.76c0,.23,0,.46,0,.69.02.28.07.53.15.76s.22.42.41.56c.19.14.44.21.77.21Z"/>
        <path class="cls-1" d="M126.08,70.81c-.85,0-1.53-.25-2.03-.74-.5-.49-.77-1.19-.81-2.1,0-.08-.01-.17-.01-.29s0-.21.01-.28c.03-.58.16-1.07.4-1.5s.56-.75.97-.97c.41-.23.9-.34,1.46-.34.62,0,1.14.13,1.57.39.42.26.74.61.95,1.07.22.46.32.98.32,1.58v.24c0,.08-.03.14-.08.2-.05.05-.12.08-.21.08h-3.82v.09c0,.27.06.52.16.74.1.23.24.41.43.55.19.14.41.21.67.21.21,0,.39-.03.54-.1.15-.07.27-.14.36-.22.09-.08.16-.15.2-.21.07-.09.12-.15.17-.17s.11-.03.19-.03h.99c.08,0,.14.02.19.07.05.05.07.1.06.17,0,.12-.07.27-.19.45-.12.18-.29.35-.51.52-.22.17-.5.31-.83.42-.33.11-.72.17-1.14.17ZM124.82,67.18h2.54v-.03c0-.3-.05-.56-.15-.78-.1-.22-.25-.4-.44-.53-.19-.13-.42-.2-.69-.2s-.5.07-.69.2c-.19.13-.34.31-.43.53-.1.22-.14.48-.14.78v.03h0Z"/>
        <path class="cls-1" d="M130.5,70.69c-.08,0-.14-.03-.2-.08-.05-.05-.08-.12-.08-.2v-5.42c0-.08.03-.15.08-.21.05-.05.12-.08.2-.08h.93c.08,0,.14.03.2.08s.09.12.09.21v.47c.18-.25.4-.43.69-.56.28-.13.6-.2.97-.2h.47c.08,0,.15.03.2.08s.07.12.07.2v.83c0,.08-.02.14-.07.2s-.12.08-.2.08h-.9c-.37,0-.65.1-.86.31-.2.21-.3.49-.3.85v3.17c0,.08-.03.14-.08.2-.05.05-.12.08-.21.08h-1Z"/>
        <path class="cls-1" d="M137.75,70.81c-.61,0-1.13-.11-1.55-.32-.42-.22-.74-.52-.96-.91-.22-.39-.34-.85-.37-1.37,0-.14-.01-.31-.01-.51s0-.37.01-.51c.03-.53.16-.99.39-1.38.23-.39.55-.69.97-.9.42-.22.93-.32,1.52-.32s1.11.11,1.52.32.74.52.97.9c.23.39.35.85.39,1.38,0,.14.01.31.01.51s0,.37-.01.51c-.03.52-.16.98-.37,1.37s-.54.69-.96.91c-.42.21-.93.32-1.55.32ZM137.75,69.67c.41,0,.72-.13.94-.39.22-.26.35-.63.37-1.13,0-.12.01-.27.01-.45s0-.33-.01-.45c-.02-.49-.15-.87-.37-1.13-.22-.26-.54-.39-.94-.39s-.72.13-.94.39c-.22.26-.35.64-.37,1.13,0,.12-.01.27-.01.45s0,.33.01.45c.02.5.15.88.37,1.13.22.26.54.39.94.39Z"/>
        <path class="cls-1" d="M144.27,70.81c-.46,0-.85-.05-1.18-.16-.33-.11-.59-.24-.8-.4-.21-.16-.36-.32-.46-.48-.1-.16-.15-.3-.16-.4,0-.08.02-.15.08-.2s.12-.07.19-.07h.91s.06,0,.08.01c.02,0,.05.03.09.07.1.08.21.17.32.27s.24.17.4.24c.15.07.35.1.58.1.3,0,.55-.06.75-.18.2-.12.3-.29.3-.51,0-.16-.04-.29-.13-.39-.09-.1-.25-.19-.49-.27-.24-.08-.58-.17-1.01-.26-.43-.1-.79-.23-1.07-.38-.28-.15-.5-.35-.63-.58-.14-.23-.21-.5-.21-.81s.09-.59.27-.86.45-.5.81-.67c.36-.18.8-.27,1.33-.27.41,0,.78.05,1.08.16.31.1.56.23.77.39.2.15.36.31.47.47.11.16.17.29.17.41,0,.08-.02.15-.07.2-.05.05-.12.07-.18.07h-.85s-.07,0-.1-.02-.06-.03-.09-.06c-.08-.08-.18-.16-.28-.24-.1-.08-.22-.16-.36-.22s-.33-.1-.56-.1c-.29,0-.51.06-.67.19s-.23.29-.23.48c0,.13.04.24.11.34.07.1.22.19.44.27.22.08.56.17,1.01.27.51.09.92.23,1.23.41.3.18.52.39.64.62.13.23.19.49.19.78,0,.35-.1.66-.3.93-.2.28-.5.49-.9.65-.4.16-.89.23-1.47.23Z"/>
        <path class="cls-1" d="M151.68,70.69c-.08,0-.14-.02-.18-.07-.05-.05-.07-.11-.07-.18v-7.55c0-.08.02-.14.07-.18.05-.05.11-.07.18-.07h.22c.08,0,.14.02.18.07.05.05.07.11.07.18v7.11h3.97c.08,0,.15.02.2.07.05.05.07.11.07.2v.17c0,.08-.02.14-.07.18-.05.05-.11.07-.2.07h-4.44Z"/>
        <path class="cls-1" d="M159.68,70.69c-.4,0-.71-.08-.94-.25s-.39-.4-.48-.69c-.09-.29-.14-.62-.14-.98v-3.4h-.9c-.08,0-.14-.02-.18-.07-.05-.05-.07-.11-.07-.18v-.16c0-.08.02-.14.07-.18.05-.05.11-.07.18-.07h.9v-1.93c0-.08.02-.14.07-.18.05-.05.11-.07.18-.07h.2c.08,0,.14.02.18.07.05.05.07.11.07.18v1.93h1.43c.08,0,.14.02.18.07s.07.11.07.18v.16c0,.08-.02.14-.07.18s-.11.07-.18.07h-1.43v3.35c0,.41.07.73.2.96s.37.34.72.34h.62c.08,0,.14.02.18.07.05.05.07.11.07.18v.16c0,.08-.02.14-.07.18-.05.05-.11.07-.18.07h-.68Z"/>
        <path class="cls-1" d="M164.05,70.81c-.44,0-.82-.08-1.13-.24-.31-.16-.56-.38-.75-.64s-.33-.57-.42-.9c-.09-.33-.14-.66-.16-1,0-.12-.01-.22-.01-.32s0-.21.01-.32c.02-.34.07-.67.16-1,.09-.33.23-.63.42-.9s.44-.48.75-.64.69-.24,1.13-.24c.48,0,.87.09,1.18.27s.56.39.75.64v-2.73c0-.08.02-.14.07-.18.05-.05.11-.07.18-.07h.2c.08,0,.14.02.18.07.05.05.07.11.07.18v7.67c0,.08-.02.14-.07.18-.05.05-.11.07-.18.07h-.2c-.08,0-.14-.02-.18-.07-.05-.05-.07-.11-.07-.18v-.54c-.19.26-.44.48-.75.65-.31.17-.7.26-1.18.26ZM164.12,70.14c.44,0,.79-.1,1.06-.31s.47-.47.6-.78c.13-.31.2-.62.21-.94,0-.12.01-.27.01-.45s0-.33-.01-.45c0-.31-.08-.61-.21-.91s-.34-.55-.6-.75-.62-.3-1.05-.3-.8.1-1.06.3c-.27.2-.45.46-.57.78-.12.32-.18.67-.2,1.04,0,.22,0,.43,0,.64.02.37.08.71.2,1.04.12.32.3.58.57.78.26.2.62.3,1.06.3Z"/>
        <path class="cls-1" d="M170.25,70.81c-.37,0-.71-.08-1.02-.23s-.56-.36-.75-.62c-.19-.26-.29-.55-.29-.87,0-.52.21-.94.63-1.25.42-.31.97-.52,1.65-.61l1.82-.25v-.4c0-.41-.12-.73-.37-.96s-.65-.35-1.19-.35c-.4,0-.72.08-.97.24-.25.16-.41.36-.51.62-.04.12-.11.17-.22.17h-.18c-.09,0-.16-.02-.2-.07-.04-.05-.06-.11-.06-.18,0-.11.04-.24.12-.4.08-.16.21-.32.37-.48.17-.16.39-.29.66-.4.27-.11.59-.16.98-.16.45,0,.83.06,1.12.18.3.12.53.28.69.48s.28.41.35.65c.07.24.1.47.1.7v3.83c0,.08-.02.14-.07.18-.05.05-.11.07-.18.07h-.2c-.08,0-.14-.02-.18-.07-.05-.05-.07-.11-.07-.18v-.54c-.09.14-.22.28-.39.41-.17.14-.39.26-.65.35-.26.09-.6.14-.99.14ZM170.37,70.14c.35,0,.68-.08.97-.23.29-.15.52-.39.7-.71.17-.32.26-.72.26-1.2v-.39l-1.49.21c-.63.08-1.1.23-1.43.44-.32.21-.48.47-.48.78,0,.25.07.46.22.62.15.16.33.28.56.36.23.08.46.12.7.12Z"/>
        <path class="cls-1" d="M174.99,70.69c-.08,0-.14-.02-.19-.07-.05-.05-.07-.11-.07-.19v-.83c0-.08.02-.14.07-.19.05-.05.11-.07.19-.07h.83c.08,0,.14.02.19.07.05.05.07.11.07.19v.83c0,.08-.03.14-.07.19-.05.05-.11.07-.19.07h-.83Z"/>
      </g>
    </g>
  </g>
</svg>