<?xml version="1.0" encoding="UTF-8"?>
<svg id="Capa_2" data-name="Capa 2" xmlns="http://www.w3.org/2000/svg" viewBox="0 0 41.28 33.34">
  <defs>
    <style>
      .cls-1 {
        fill: #042f35;
      }
    </style>
  </defs>
  <g id="Capa_1-2" data-name="Capa 1">
    <g>
      <path class="cls-1" d="M28.06.01c1.24-.12,2.6.5,3.26,1.57,1.25,2.57,2.1,5.34,3.28,7.95,1.47.18,3.13-.22,4.52.35,1.23.5,2.06,1.72,2.17,3.03v17.09c-.17,1.87-1.56,3.2-3.43,3.34H10.86c-1.2-.09-2.06-.81-3-1.45-.71-.49-1.04-.84-1.42-1.63L.15,14.42c-.53-1.75.4-3.64,2.09-4.31C10.07,7.15,17.75,3.79,25.58.84c.75-.28,1.7-.75,2.48-.82ZM40.29,15.1v-2.27c0-.93-1.22-2.18-2.18-2.19H10.61c-.82,0-2.1,1.25-2.1,2.03v2.44h31.78ZM40.29,20.79H8.51v9.45c0,.96,1.54,2.21,2.52,2.1h26.58c1.15.08,2.68-1.09,2.68-2.27v-9.29Z"/>
      <path class="cls-1" d="M12.62,22.55c.78-.11,3.97-.12,4.64.1.61.2,1.08.75,1.16,1.4.11,1.02.1,3.34,0,4.38-.07.77-.67,1.44-1.45,1.52-1.04.11-3.33.1-4.38,0-.71-.06-1.25-.49-1.48-1.16s-.21-3.87-.1-4.64c.12-.87.74-1.49,1.61-1.61Z"/>
      <g>
        <path class="cls-1" d="M27.23,24.36l9.72-.02c.82-.06,1.04.97.17,1.07h-9.83c-.78-.09-.86-.91-.06-1.06Z"/>
        <path class="cls-1" d="M30.9,27.25c.1-.1.29-.1.43-.11,1.87-.16,3.97.13,5.87,0,.6.07.63.92,0,1-1.88-.17-4.12.21-5.95,0-.47-.06-.71-.55-.35-.89Z"/>
      </g>
    </g>
  </g>
</svg>