<?xml version="1.0" encoding="UTF-8"?>
<svg id="Capa_2" data-name="Capa 2" xmlns="http://www.w3.org/2000/svg" viewBox="0 0 37.12 40.78">
  <defs>
    <style>
      .cls-1 {
        fill: #fff;
      }
    </style>
  </defs>
  <g id="Capa_1-2" data-name="Capa 1">
    <g>
      <path class="cls-1" d="M6.25,17.5c-.44-.44-.15-1.33.49-1.41h8.92c.97.28.86,1.56-.15,1.68-2.74-.2-5.83.25-8.53,0-.24-.02-.55-.09-.73-.27Z"/>
      <g>
        <path class="cls-1" d="M18.49,0c.61.42,1.15,1.02,1.68,1.55,2.51,2.58,4.92,5.28,7.44,7.85l.21.67v7.61c8.11,1.72,11.99,11.11,7.23,18.04-4.81,7.01-15.28,6.65-19.64-.58-3.89-.05-7.81.11-11.69-.09-2.05-.4-3.53-2.09-3.72-4.17V4.18C.23,2.33,1.4.78,3.19.2l.79-.2h14.5ZM26.14,10.84h-4.98c-1.55,0-3.71-1.59-3.71-3.23V1.79s-.11-.12-.12-.12H4.5c-1.23,0-2.5,1.08-2.73,2.29-.16,9.07-.19,18.21.02,27.28.05.8,1.4,2.15,2.16,2.15h10.56c-.8-2.26-1.04-4.67-.48-7.01h-7.29c-.68,0-1.04-1.46-.14-1.66l7.94-.03,1.49-2.62H6.9c-.31,0-.78-.34-.83-.68-.12-.78.4-1.03,1.07-1.07,3.4-.25,7.09.19,10.52,0,2.37-1.96,5.38-3.1,8.49-2.87v-6.61ZM24.86,9.08l-5.74-6.06v4.26c0,.62,1.01,1.79,1.63,1.79h4.1ZM35.4,29.11c0-5.51-4.47-9.98-9.98-9.98s-9.98,4.47-9.98,9.98,4.47,9.98,9.98,9.98,9.98-4.47,9.98-9.98Z"/>
        <path class="cls-1" d="M24.55,23.39c.11-.72.97-1.09,1.49-.57.08.08.27.49.27.57v9.28l3.38-3.67c.8-.81,2.01.08,1.35,1.03-1.64,1.67-3.16,3.58-4.81,5.23-.42.42-.82.62-1.36.24l-5.02-5.34c-.74-.97.32-2.01,1.27-1.19.81.7,1.67,1.86,2.44,2.66.32.33.65.66,1,.96v-9.2Z"/>
      </g>
    </g>
  </g>
</svg>