<?xml version="1.0" encoding="UTF-8"?>
<svg id="Capa_2" data-name="Capa 2" xmlns="http://www.w3.org/2000/svg" viewBox="0 0 113.75 113.75">
  <defs>
    <style>
      .cls-1 {
        fill: #fff;
      }
    </style>
  </defs>
  <g id="Capa_1-2" data-name="Capa 1">
    <path class="cls-1" d="M71.85,0c3.14.66,5.98,2.35,7.48,5.27.35.68,1.17,2.83,1.17,3.49v24.28h24.28c4.7,0,8.47,5.29,8.77,9.64.64,9.2-.51,19.13,0,28.4.03,4.17-4.55,9.42-8.77,9.42h-24.28v24.28c0,4.16-5.27,8.86-9.42,8.77-9.28-.5-19.21.64-28.4,0-4.35-.3-9.64-4.09-9.64-8.77v-24.28H8.76c-.65,0-2.81-.83-3.49-1.17-2.94-1.5-4.58-4.33-5.27-7.48v-30.16c.4-3.85,4.8-8.65,8.76-8.65h24.28V8.76c0-4.04,4.8-8.3,8.65-8.76h30.16ZM41.85,4.49c-2.26.57-3.87,2.21-4.36,4.51-.62,8.34.76,17.72-.01,25.93-.16,1.7-.86,2.39-2.55,2.55-8.21.77-17.6-.61-25.93.01-2.46.52-4.32,2.44-4.57,4.96l.11,29.4c.62,2.18,2.23,3.7,4.47,4.18,8.34.62,17.72-.76,25.93.01,1.7.16,2.39.86,2.55,2.55.77,8.21-.61,17.6.01,25.93.52,2.46,2.44,4.32,4.96,4.57l29.4-.11c2.18-.62,3.7-2.23,4.18-4.47.62-8.34-.76-17.72.01-25.93.16-1.7.86-2.39,2.55-2.55,8.21-.77,17.6.61,25.93-.01,2.46-.52,4.32-2.44,4.57-4.96l-.11-29.4c-.62-2.18-2.23-3.7-4.47-4.18-8.34-.62-17.72.76-25.93-.01-1.7-.16-2.39-.86-2.55-2.55-.77-8.21.61-17.6-.01-25.93-.52-2.46-2.44-4.32-4.96-4.57l-29.23.06Z"/>
  </g>
</svg>