<?xml version="1.0" encoding="UTF-8"?>
<svg id="Capa_2" data-name="Capa 2" xmlns="http://www.w3.org/2000/svg" viewBox="0 0 69.35 69.35">
  <defs>
    <style>
      .cls-1 {
        fill: #275330;
      }
    </style>
  </defs>
  <g id="Capa_1-2" data-name="Capa 1">
    <path class="cls-1" d="M34.67,69.35s-.06,0-.09,0c-9.1-.02-17.75-3.68-24.34-10.28C3.64,52.46,0,43.8,0,34.7c0-9.27,3.6-17.99,10.15-24.55C16.7,3.61,25.41,0,34.67,0h.03c9.06,0,17.64,3.52,24.17,9.89,6.53,6.37,10.25,14.86,10.47,23.91.12,5.04-.81,9.93-2.78,14.52,0,.02-.01.03-.02.05-.1.21-2.62,5.11-6.95,5.77-2.49.38-5.01-.71-7.47-3.24-.23-.24-.31-.59-.2-.91l.8-2.26c.52-1.46-.07-3.11-1.4-3.91l-4.28-2.58c-1.18-.71-2.67-.58-3.71.33l-3.24,2.83c-.22.2-.53.27-.81.19-.48-.13-11.71-3.31-14.59-15.22-.07-.27,0-.56.18-.78l2.82-3.36c.33-.4.39-.97.14-1.43l-4.1-7.41c-.32-.57-1.01-.81-1.6-.56-2.94,1.26-7.71,4.14-6.64,9.25,1.44,6.83,5.36,13.46,11.66,19.71,5.54,5.49,14.74,8.39,19.21,8.61.49.02.86.44.84.93-.02.49-.44.86-.93.84-4.75-.24-14.51-3.3-20.37-9.12-6.55-6.5-10.64-13.43-12.14-20.6-.97-4.64,1.82-8.74,7.67-11.24,1.44-.62,3.09-.05,3.85,1.33l4.1,7.41c.6,1.09.47,2.47-.33,3.42l-2.52,3.01c2.47,9.27,10.78,12.66,12.79,13.36l2.86-2.5c1.62-1.42,3.95-1.62,5.79-.51l4.28,2.58c2.04,1.23,2.95,3.76,2.16,6.02l-.61,1.73c1.9,1.83,3.77,2.61,5.54,2.34,3.3-.5,5.46-4.47,5.63-4.8,1.86-4.35,2.74-8.97,2.62-13.75-.44-17.67-15.18-32.06-32.87-32.07h-.02c-8.79,0-17.05,3.42-23.27,9.64C5.19,17.63,1.76,25.9,1.77,34.7c.01,17.77,15.04,32.83,32.81,32.88.03,0,.06,0,.09,0,6.96,0,13.6-2.14,19.23-6.2.4-.29.95-.2,1.24.2.29.4.2.95-.2,1.24-5.93,4.28-12.93,6.53-20.26,6.53Z"/>
  </g>
</svg>