<?xml version="1.0" encoding="UTF-8"?>
<svg id="Capa_2" data-name="Capa 2" xmlns="http://www.w3.org/2000/svg" viewBox="0 0 69.74 35.06">
  <defs>
    <style>
      .cls-1 {
        fill: #fff;
      }
    </style>
  </defs>
  <g id="Capa_1-2" data-name="Capa 1">
    <g>
      <path class="cls-1" d="M51.86,7.26c-4.51,0-6.78-1.47-8.97-2.9-2.07-1.34-4.03-2.61-8.02-2.61s-5.95,1.27-8.02,2.61c-2.2,1.42-4.47,2.9-8.97,2.9s-6.78-1.47-8.97-2.9C6.82,3.02,4.87,1.75.88,1.75c-.48,0-.88-.39-.88-.88s.39-.88.88-.88c4.51,0,6.78,1.47,8.97,2.9,2.07,1.34,4.03,2.61,8.02,2.61s5.95-1.27,8.02-2.61c2.2-1.42,4.47-2.9,8.97-2.9s6.78,1.47,8.97,2.9c2.07,1.34,4.03,2.61,8.02,2.61s5.95-1.27,8.02-2.61c2.2-1.42,4.47-2.9,8.97-2.9.48,0,.88.39.88.88s-.39.88-.88.88c-3.99,0-5.95,1.27-8.02,2.61-2.2,1.42-4.47,2.9-8.97,2.9Z"/>
      <path class="cls-1" d="M51.86,21.16c-4.51,0-6.78-1.47-8.97-2.9-2.07-1.34-4.03-2.61-8.02-2.61s-5.95,1.27-8.02,2.61c-2.2,1.42-4.47,2.9-8.97,2.9s-6.78-1.47-8.97-2.9c-2.07-1.34-4.03-2.61-8.02-2.61-.48,0-.88-.39-.88-.88s.39-.88.88-.88c4.51,0,6.78,1.47,8.97,2.9,2.07,1.34,4.03,2.61,8.02,2.61s5.95-1.27,8.02-2.61c2.2-1.42,4.47-2.9,8.97-2.9s6.78,1.47,8.97,2.9c2.07,1.34,4.03,2.61,8.02,2.61s5.95-1.27,8.02-2.61c2.2-1.42,4.47-2.9,8.97-2.9.48,0,.88.39.88.88s-.39.88-.88.88c-3.99,0-5.95,1.27-8.02,2.61-2.2,1.42-4.47,2.9-8.97,2.9Z"/>
      <path class="cls-1" d="M51.86,35.06c-4.51,0-6.78-1.47-8.97-2.9-2.07-1.34-4.03-2.61-8.02-2.61s-5.95,1.27-8.02,2.61c-2.2,1.42-4.47,2.9-8.97,2.9s-6.78-1.47-8.97-2.9c-2.07-1.34-4.03-2.61-8.02-2.61-.48,0-.88-.39-.88-.88s.39-.88.88-.88c4.51,0,6.78,1.47,8.97,2.9,2.07,1.34,4.03,2.61,8.02,2.61s5.95-1.27,8.02-2.61c2.2-1.42,4.47-2.9,8.97-2.9s6.78,1.47,8.97,2.9c2.07,1.34,4.03,2.61,8.02,2.61s5.95-1.27,8.02-2.61c2.2-1.42,4.47-2.9,8.97-2.9.48,0,.88.39.88.88s-.39.88-.88.88c-3.99,0-5.95,1.27-8.02,2.61-2.2,1.42-4.47,2.9-8.97,2.9Z"/>
    </g>
  </g>
</svg>