<?xml version="1.0" encoding="UTF-8"?>
<svg id="Capa_2" data-name="Capa 2" xmlns="http://www.w3.org/2000/svg" viewBox="0 0 39.78 47.5">
  <defs>
    <style>
      .cls-1 {
        fill: #fff;
      }
    </style>
  </defs>
  <g id="Capa_1-2" data-name="Capa 1">
    <g>
      <path class="cls-1" d="M36.66,47.5l-34.15-.06-.34-.15c-2.69-1.18-2.22-3.75-1.99-4.99,1.06-5.93,4.86-11.22,9.98-14.05,2.01-1.12,2.66-1.23,2.9-1.27h0c1.05-.18,1.87.12,2.47.33.16.06.32.12.5.17,2.43.62,4.3.72,6.46.32.45-.08.82-.22,1.18-.34,1.07-.36,2.39-.81,4.22-.06,5.45,2.23,9.92,7.51,11.4,13.44.4,1.57.92,3.63-.11,5.19-.36.55-1.07,1.25-2.38,1.46l-.14.02ZM3.53,43.89l32.72.06c.09-.31-.23-1.56-.35-2.04-1.25-5.03-4.99-9.45-9.36-11.24-.58-.24-.84-.16-1.74.14-.5.17-1.04.35-1.66.46-2.66.49-5.05.39-7.99-.37-.29-.07-.56-.17-.83-.27-.36-.13-.54-.18-.64-.17-.2.06-.82.33-1.8.88-4.21,2.33-7.34,6.67-8.17,11.35l-.04.24c-.05.28-.13.69-.14.96Z"/>
      <path class="cls-1" d="M19.89,24.62c-6.79,0-12.31-5.52-12.31-12.31S13.1,0,19.89,0s12.31,5.52,12.31,12.31-5.52,12.31-12.31,12.31ZM19.89,3.55c-4.83,0-8.77,3.93-8.77,8.77s3.93,8.76,8.77,8.76,8.76-3.93,8.76-8.76-3.93-8.77-8.76-8.77Z"/>
    </g>
  </g>
</svg>