<?xml version="1.0" encoding="UTF-8"?>
<svg id="Capa_2" data-name="Capa 2" xmlns="http://www.w3.org/2000/svg" viewBox="0 0 36.56 36.56">
  <defs>
    <style>
      .cls-1 {
        fill: #fff;
      }
    </style>
  </defs>
  <g id="Capa_1-2" data-name="Capa 1">
    <g>
      <path class="cls-1" d="M18.28,0C8.2,0,0,8.2,0,18.28,0,21.12.64,23.84,1.89,26.37L.03,35.09c-.09.42.04.85.35,1.14.23.22.53.34.84.34.1,0,.21-.01.31-.04l8.08-2.16c2.67,1.44,5.65,2.2,8.66,2.2,10.08,0,18.28-8.2,18.28-18.28S28.36,0,18.28,0ZM18.28,34.13c-2.76,0-5.49-.73-7.89-2.12-.19-.11-.4-.16-.61-.16-.11,0-.21.01-.31.04l-6.64,1.77,1.54-7.19c.06-.28.02-.57-.11-.82-1.21-2.29-1.82-4.77-1.82-7.36,0-8.74,7.11-15.84,15.84-15.84s15.84,7.11,15.84,15.84-7.11,15.84-15.84,15.84Z"/>
      <path class="cls-1" d="M26.69,19.82c-.9-.9-2.24-1.17-3.42-.7l-1.62.65c-.08.03-.17.01-.23-.05l-4.57-4.57c-.06-.06-.08-.15-.05-.23l.65-1.62c.47-1.18.2-2.52-.7-3.42l-1.68-1.68c-.7-.7-1.69-1.01-2.67-.84-.97.18-1.8.82-2.21,1.72l-1.06,2.33c-1.14,2.51-.6,5.51,1.35,7.45l7.22,7.22c1.27,1.27,2.98,1.94,4.72,1.94.93,0,1.86-.19,2.74-.59l2.33-1.06c.9-.41,1.54-1.23,1.72-2.21.18-.97-.13-1.97-.83-2.68l-1.68-1.68ZM26.8,23.73c-.02.11-.09.31-.33.42l-2.33,1.06c-1.59.72-3.49.38-4.72-.86l-7.22-7.22c-1.23-1.23-1.58-3.13-.86-4.72l1.06-2.33c.11-.24.31-.31.43-.33.11-.02.33-.03.51.16l1.68,1.68c.21.21.27.52.16.79l-.65,1.62c-.39.98-.16,2.11.59,2.85l4.57,4.57c.75.75,1.87.98,2.86.59l1.62-.65c.27-.11.58-.05.79.16l1.68,1.68c.19.19.18.4.16.52Z"/>
    </g>
  </g>
</svg>