<?xml version="1.0" encoding="UTF-8"?>
<svg id="Capa_2" data-name="Capa 2" xmlns="http://www.w3.org/2000/svg" viewBox="0 0 36.79 36.79">
  <defs>
    <style>
      .cls-1 {
        fill: #fff;
      }
    </style>
  </defs>
  <g id="Capa_1-2" data-name="Capa 1">
    <g>
      <path class="cls-1" d="M24.49,17.02h-4.73v-4.73c0-.76-.61-1.37-1.37-1.37s-1.37.61-1.37,1.37v4.73h-4.73c-.76,0-1.37.61-1.37,1.37s.61,1.37,1.37,1.37h4.73v4.73c0,.76.61,1.37,1.37,1.37s1.37-.61,1.37-1.37v-4.73h4.73c.76,0,1.37-.61,1.37-1.37s-.61-1.37-1.37-1.37Z"/>
      <path class="cls-1" d="M18.39,0C8.25,0,0,8.25,0,18.39s8.25,18.39,18.39,18.39,18.39-8.25,18.39-18.39S28.54,0,18.39,0ZM18.39,34.34c-8.79,0-15.94-7.15-15.94-15.94S9.6,2.45,18.39,2.45s15.94,7.15,15.94,15.94-7.15,15.94-15.94,15.94Z"/>
    </g>
  </g>
</svg>