<?xml version="1.0" encoding="UTF-8"?>
<svg id="Capa_2" data-name="Capa 2" xmlns="http://www.w3.org/2000/svg" viewBox="0 0 53.84 68.27">
  <defs>
    <style>
      .cls-1 {
        fill: #fff;
      }
    </style>
  </defs>
  <g id="Capa_1-2" data-name="Capa 1">
    <path class="cls-1" d="M38.63,68.27h-10.69c-.48,0-.86-.39-.86-.86s.39-.86.86-.86h10.69c.67,0,1.22-.55,1.22-1.22s-.55-1.22-1.22-1.22h-21.49c-1.6,0-2.86-1.17-2.88-2.68-.02-.28-.05-1.39.71-2.22.36-.39,1.03-.83,2.18-.8h1.5l19.09-.11h2.84c.62,0,1.12-.5,1.12-1.12,0-.68-.55-1.23-1.23-1.23H15.11c-1.57,0-2.85-1.28-2.85-2.85s1.28-2.85,2.85-2.85h1.51l22.99-.11h2.84c.62,0,1.12-.5,1.12-1.12s-.5-1.12-1.12-1.12h-2.87c-1.92-.08-3.44-.33-5.07-1.35-2.28-1.41-5-4.48-5.35-11.07-.72.1-1.44.18-2.17.21h-.09s-.02,0-.02,0c-.73-.04-1.46-.11-2.17-.21-.23,4.2-1.51,7.32-3.81,9.29-3.11,2.65-6.89,2.16-7.05,2.14-4.51-.72-8.2-3.38-10.68-7.68C-.46,32.98-1.02,23.95,1.74,16.77,4.96,8.38,12.6,2.31,22.18.52c9.62-1.8,18.97,1.12,25.01,7.79,8.48,9.36,8.89,23.83.98,34.39-.29.38-.83.46-1.21.17-.38-.29-.46-.83-.17-1.21,7.41-9.9,7.04-23.44-.88-32.2C40.27,3.24,31.52.53,22.49,2.22,13.51,3.89,6.36,9.56,3.35,17.39c-2.58,6.73-2.07,15.15,1.29,20.97,2.21,3.84,5.48,6.2,9.44,6.84.01,0,3.19.39,5.69-1.76,1.96-1.68,3.04-4.46,3.2-8.27-4.42-.97-8.21-3.09-9.68-5.62-.78-1.34-.86-2.71-.23-3.96.76-1.51,1.85-1.99,2.64-2.13,2.39-.41,4.78,1.68,5.45,2.33,2.13,2.05,3.39,4.91,3.55,7.95.71.11,1.45.19,2.22.23.76-.04,1.5-.12,2.22-.23.16-3.05,1.43-5.91,3.55-7.95.68-.65,3.07-2.74,5.45-2.33.79.14,1.88.61,2.64,2.13.63,1.25.55,2.62-.23,3.96-1.47,2.53-5.26,4.66-9.68,5.62.2,4.77,1.77,8.19,4.54,9.91,1.32.82,2.5,1.02,4.22,1.09h2.82c1.57,0,2.85,1.28,2.85,2.85s-1.28,2.85-2.85,2.85h-2.84l-22.99.11h-1.51c-.62,0-1.12.5-1.12,1.12s.5,1.12,1.12,1.12h25.37c1.63,0,2.96,1.33,2.96,2.96s-1.28,2.85-2.85,2.85h-2.84l-19.09.11h-1.54c-.41-.01-.7.07-.87.25-.25.27-.27.76-.26.92v.08c0,.65.58.99,1.16.99h21.49c1.63,0,2.95,1.32,2.95,2.95s-1.32,2.95-2.95,2.95ZM16.33,25.12c-.12,0-.23,0-.34.03-.58.1-1.03.49-1.39,1.2-.36.73-.3,1.49.18,2.32,1.04,1.78,4.06,3.76,8.16,4.72-.22-2.45-1.28-4.72-3-6.37-.95-.91-2.42-1.9-3.63-1.9ZM37.51,25.12c-1.21,0-2.68.99-3.63,1.9-1.71,1.65-2.77,3.92-2.99,6.37,4.1-.97,7.12-2.94,8.16-4.72.49-.84.55-1.6.18-2.32-.35-.71-.81-1.1-1.39-1.2-.11-.02-.22-.03-.34-.03Z"/>
  </g>
</svg>