<?xml version="1.0" encoding="UTF-8"?>
<svg id="Capa_2" data-name="Capa 2" xmlns="http://www.w3.org/2000/svg" viewBox="0 0 35 35">
  <defs>
    <style>
      .cls-1 {
        fill: #fff;
      }
    </style>
  </defs>
  <g id="Capa_1-2" data-name="Capa 1">
    <g>
      <path class="cls-1" d="M26.21,0l1.92.36c3.14.88,5.66,3.42,6.52,6.56l.35,1.87v17.31c-.41,4.8-4.19,8.53-9.03,8.8-5.55-.25-11.38.32-16.91,0C4.15,34.6.35,30.7.1,25.8c-.3-5.75.17-11.81.08-17.58C.73,3.82,4.48.31,8.9,0h17.31ZM8.95,2.07c-3.71.33-6.59,3.31-6.81,7.03-.32,5.5.24,11.31,0,16.84.27,3.69,3.23,6.64,6.92,6.92h16.97c3.69-.27,6.64-3.23,6.92-6.92V8.96c-.3-3.76-3.27-6.7-7.05-6.92-5.53-.32-11.39.23-16.95.02Z"/>
      <path class="cls-1" d="M27.09,17.45c0,5.27-4.27,9.53-9.53,9.53s-9.53-4.27-9.53-9.53,4.27-9.53,9.53-9.53,9.53,4.27,9.53,9.53ZM25.04,17.45c0-4.14-3.35-7.49-7.49-7.49s-7.49,3.35-7.49,7.49,3.35,7.49,7.49,7.49,7.49-3.35,7.49-7.49Z"/>
      <path class="cls-1" d="M30.13,7.34c0,1.55-1.26,2.81-2.81,2.81s-2.81-1.26-2.81-2.81,1.26-2.81,2.81-2.81,2.81,1.26,2.81,2.81ZM28.09,7.34c0-.42-.34-.76-.76-.76s-.76.34-.76.76.34.76.76.76.76-.34.76-.76Z"/>
    </g>
  </g>
</svg>