<?xml version="1.0" encoding="UTF-8"?>
<svg id="Capa_2" data-name="Capa 2" xmlns="http://www.w3.org/2000/svg" viewBox="0 0 36.56 36.56">
  <defs>
    <style>
      .cls-1 {
        fill: #fff;
      }
    </style>
  </defs>
  <g id="Capa_1-2" data-name="Capa 1">
    <path class="cls-1" d="M36.48,16.5C35.64,7.67,28.32.6,19.47.04c-5.48-.35-10.77,1.74-14.51,5.73C1.21,9.75-.54,15.18.15,20.65c1.03,8.14,7.68,14.77,15.83,15.77.76.09,1.53.14,2.29.14,2.7,0,5.36-.59,7.8-1.74,1.63-.77,2.77-2.31,3.04-4.11.22-1.47-.15-2.95-1-4.13.93-.43,1.59-1.28,1.78-2.29.18-1.01-.14-2.05-.86-2.77l-1.78-1.79c-.93-.93-2.33-1.22-3.55-.73l-1.72.69c-.11.04-.23.02-.32-.07l-4.85-4.86c-.09-.09-.11-.21-.07-.33l.69-1.72c.49-1.23.2-2.62-.73-3.56l-1.78-1.79c-.72-.73-1.76-1.05-2.77-.87-1.01.18-1.87.85-2.29,1.79,0,0,0,0,0,0l-1.12,2.48c-1.2,2.64-.63,5.79,1.42,7.85l7.66,7.69c1.33,1.34,3.13,2.05,4.95,2.05.98,0,1.96-.2,2.88-.62l.17-.08c.71.71,1.05,1.71.9,2.71-.15,1.01-.76,1.84-1.67,2.27-2.7,1.27-5.73,1.75-8.75,1.38-7.05-.86-12.82-6.61-13.71-13.66-.6-4.75.92-9.46,4.16-12.91,3.25-3.46,7.83-5.26,12.58-4.96,7.67.49,14.01,6.61,14.74,14.25.24,2.48-.08,4.89-.95,7.17-.24.63.08,1.33.71,1.57.63.24,1.33-.08,1.57-.71,1-2.63,1.37-5.41,1.1-8.26ZM19.52,24.57l-7.66-7.69c-1.33-1.34-1.71-3.4-.92-5.12l1.12-2.48c.14-.3.4-.38.51-.4.13-.03.39-.03.61.19l1.78,1.79c.24.24.32.61.19.93l-.69,1.72c-.41,1.02-.17,2.18.6,2.95l4.85,4.86c.77.78,1.94,1.02,2.95.61l1.72-.69c.32-.13.68-.05.92.19l1.78,1.79c.23.23.21.51.19.62s-.1.37-.39.51l-2.47,1.12c-1.71.78-3.76.41-5.09-.93Z"/>
  </g>
</svg>